<svg width="36" height="24" viewBox="0 0 36 24" fill="none" xmlns="http://www.w3.org/2000/svg">
<g clip-path="url(#clip0_1_3072)">
<path d="M0 0.00720215H36V23.9941H0V0.00720215Z" fill="#012169"/>
<path d="M17.9572 10.9305L35.9976 23.9929L35.997 23.9939L35.9949 23.9975L35.9935 23.9998H31.3932L17.9572 14.2712V10.9305Z" fill="white"/>
<path d="M17.9572 10.9283L35.9991 23.9918L36 23.9925L35.9991 23.9941L35.9985 23.9951L35.9965 23.9986L35.9956 24H32.7147L21.9123 16.1784L21.9121 16.1782L17.9572 13.3146V10.9283Z" fill="#C8102E"/>
<path d="M17.9572 7.59106L35.9991 20.6545V23.9916L36 23.9923L35.9991 23.9939V23.9953L35.9985 23.9949L35.997 23.9939L17.9572 10.9319V7.59106Z" fill="white"/>
<path d="M17.9572 13.0724L35.992 0.014054L35.9969 0.010376L35.9975 0.0113355L35.9938 0.014054H35.999V3.34967L17.9572 16.4132V13.0724Z" fill="white"/>
<path d="M17.9572 13.0697L35.9885 0.0137586L35.9959 0.00840149L35.9976 0.00720215L35.9986 0.00896119L35.9969 0.0100806L35.9975 0.0110401L35.9938 0.0137586H35.999V2.39246L17.9572 15.456V13.0697Z" fill="#C8102E"/>
<path d="M17.9572 9.73283L31.38 0.013902H35.9886L35.996 0.00854492L35.997 0.010224L35.9976 0.0111835L35.9938 0.013902L17.9572 13.0736V9.73283Z" fill="white"/>
<path d="M18.043 13.0693L0.0026474 0.00687624L0.00322342 0.00591677L0.00531197 0.00231873L0.00667953 0H4.60698L18.043 9.72852V13.0693Z" fill="white"/>
<path d="M18.043 13.0717L0.00113869 0.00815554L0.000204086 0.00751589L0.00113869 0.00591677L0.00171471 0.00487733L0.00373268 0.00143921L0.0045948 0H3.28549L14.0879 7.82164L14.0881 7.8218L18.043 10.6854V13.0717Z" fill="#C8102E"/>
<path d="M18.043 16.4091L0.00113869 3.3457V0.0085608L0.000204086 0.00792115L0.00113869 0.00632203V0.00488281L0.00171471 0.00528259L0.00322723 0.00632203L18.043 13.0683V16.4091Z" fill="white"/>
<path d="M18.043 10.9283L0.00819778 23.9866L0.00323105 23.9903L0.00265503 23.9894L0.00639915 23.9866H0.0011425V20.651L18.043 7.58752V10.9283Z" fill="white"/>
<path d="M18.043 10.9311L0.0116539 23.987L0.00424004 23.9924L0.00258446 23.9936L0.00157547 23.9918L0.00323105 23.9907L0.00265503 23.9897L0.00639915 23.987H0.0011425V21.6083L18.043 8.5448V10.9311Z" fill="#C8102E"/>
<path d="M18.043 14.2678L4.62022 23.9867H0.0116463L0.00423241 23.9921L0.00322342 23.9904L0.0026474 23.9895L0.00639153 23.9867L18.043 10.927V14.2678Z" fill="white"/>
<path d="M0 8.0022H36V15.9978H0V8.0022Z" fill="white"/>
<path d="M14.3999 0.00683594H21.5999V23.9937H14.3999V0.00683594Z" fill="white"/>
<path d="M0 9.20117H36V14.7981H0V9.20117Z" fill="#C8102E"/>
<path d="M15.48 0.00683594H20.52V23.9937H15.48V0.00683594Z" fill="#C8102E"/>
</g>
<defs>
<clipPath id="clip0_1_3072">
<rect width="36" height="24" rx="2.25" transform="matrix(-1 0 0 1 36 0)" fill="white"/>
</clipPath>
</defs>
</svg>
