<svg width="24" height="24" viewBox="0 0 24 24" fill="none" xmlns="http://www.w3.org/2000/svg">
<path fill-rule="evenodd" clip-rule="evenodd" d="M12 2.25C17.3849 2.25 21.75 6.61521 21.75 11.9999C21.75 17.3852 17.3851 21.7506 12.0005 21.75C6.61583 21.75 2.25058 17.385 2.25 11.9999C2.25 6.61548 6.61559 2.25 12 2.25ZM12 3.75C7.44401 3.75 3.75 7.44391 3.75 11.9998C3.75049 16.5565 7.44421 20.25 12.0006 20.25C16.5567 20.2505 20.25 16.5568 20.25 11.9999C20.25 7.44362 16.5565 3.75 12 3.75ZM12 10.25C12.4142 10.25 12.75 10.5858 12.75 11V15.971L12.7432 16.0727C12.6935 16.4388 12.3797 16.721 12 16.721C11.5858 16.721 11.25 16.3852 11.25 15.971V11L11.2568 10.8982C11.3065 10.5322 11.6203 10.25 12 10.25ZM12 7.5C12.4142 7.5 12.75 7.83579 12.75 8.25C12.75 8.66421 12.4142 9 12 9C11.5858 9 11.25 8.66421 11.25 8.25C11.25 7.83579 11.5858 7.5 12 7.5Z" fill="black"/>
</svg>
