<svg width="24" height="24" viewBox="0 0 24 24" fill="none" xmlns="http://www.w3.org/2000/svg">
<path fill-rule="evenodd" clip-rule="evenodd" d="M9.53033 5.46967C9.7966 5.73594 9.8208 6.1526 9.60295 6.44621L9.53033 6.53033L4.81 11.25H21C21.4142 11.25 21.75 11.5858 21.75 12C21.75 12.3797 21.4678 12.6935 21.1018 12.7432L21 12.75H4.812L9.53033 17.4697C9.7966 17.7359 9.8208 18.1526 9.60295 18.4462L9.53033 18.5303C9.26406 18.7966 8.8474 18.8208 8.55379 18.603L8.46967 18.5303L2.46967 12.5303L2.40627 12.4583C2.40382 12.4551 2.4014 12.4519 2.399 12.4487L2.46967 12.5303C2.43262 12.4933 2.40025 12.4533 2.37257 12.4112C2.35941 12.391 2.34703 12.37 2.33567 12.3484C2.33084 12.3393 2.32648 12.3306 2.3223 12.3218C2.30956 12.295 2.29805 12.2665 2.2883 12.2373C2.28604 12.2303 2.28412 12.2242 2.28227 12.2182C2.26135 12.1497 2.25 12.0762 2.25 12C2.25 11.9616 2.25288 11.9239 2.25845 11.8871C2.26025 11.8755 2.26231 11.8638 2.26464 11.8521C2.26959 11.8271 2.27576 11.8028 2.28309 11.779C2.28671 11.7674 2.29074 11.7553 2.29509 11.7433C2.30357 11.72 2.31288 11.698 2.32317 11.6765C2.32867 11.6649 2.33497 11.6525 2.34163 11.6404C2.35487 11.6163 2.36898 11.5936 2.38422 11.5717C2.38814 11.566 2.39254 11.5599 2.39705 11.5538C2.42217 11.5206 2.44507 11.4943 2.46967 11.4697L8.46967 5.46967C8.76256 5.17678 9.23744 5.17678 9.53033 5.46967Z" fill="black"/>
</svg>
