<svg width="24" height="24" viewBox="0 0 24 24" fill="none" xmlns="http://www.w3.org/2000/svg">
<path d="M12 8.25C9.92893 8.25 8.25 9.92893 8.25 12C8.25 14.0711 9.92893 15.75 12 15.75C14.0711 15.75 15.75 14.0711 15.75 12C15.75 9.92893 14.0711 8.25 12 8.25ZM12 9.75C13.2426 9.75 14.25 10.7574 14.25 12C14.25 13.2426 13.2426 14.25 12 14.25C10.7574 14.25 9.75 13.2426 9.75 12C9.75 10.7574 10.7574 9.75 12 9.75Z" fill="black"/>
<path fill-rule="evenodd" clip-rule="evenodd" d="M12 15L10 14L9 12L10 10L12 9L15 10V12L14 14L12 15Z" fill="black"/>
<path fill-rule="evenodd" clip-rule="evenodd" d="M12.0163 16.6917C12.396 16.6917 12.7098 16.9739 12.7594 17.3399L12.7663 17.4417V20.6827C12.7663 21.0969 12.4305 21.4327 12.0163 21.4327C11.6366 21.4327 11.3228 21.1505 11.2731 20.7845L11.2663 20.6827V17.4417C11.2663 17.0275 11.6021 16.6917 12.0163 16.6917ZM16.2989 15.25L16.383 15.3226L18.675 17.6146C18.9679 17.9075 18.9679 18.3823 18.675 18.6752C18.4087 18.9415 17.9921 18.9657 17.6985 18.7478L17.6143 18.6752L15.3223 16.3832C15.0295 16.0903 15.0295 15.6155 15.3223 15.3226C15.5886 15.0563 16.0053 15.0321 16.2989 15.25ZM8.71021 15.3226C8.97647 15.5888 9.00068 16.0055 8.78282 16.2991L8.71021 16.3832L6.41821 18.6752C6.12531 18.9681 5.65044 18.9681 5.35755 18.6752C5.09128 18.409 5.06707 17.9923 5.28493 17.6987L5.35755 17.6146L7.64955 15.3226C7.94244 15.0297 8.41731 15.0297 8.71021 15.3226ZM6.59098 11.2664C7.00519 11.2664 7.34098 11.6022 7.34098 12.0164C7.34098 12.3961 7.05882 12.7099 6.69275 12.7596L6.59098 12.7664H3.34998C2.93576 12.7664 2.59998 12.4306 2.59998 12.0164C2.59998 11.6367 2.88213 11.3229 3.24821 11.2732L3.34998 11.2664H6.59098ZM20.6826 11.2664C21.0968 11.2664 21.4326 11.6022 21.4326 12.0164C21.4326 12.3961 21.1504 12.7099 20.7843 12.7596L20.6826 12.7664H17.4416C17.0274 12.7664 16.6916 12.4306 16.6916 12.0164C16.6916 11.6367 16.9737 11.3229 17.3398 11.2732L17.4416 11.2664H20.6826ZM6.33409 5.28505L6.41821 5.35767L8.71021 7.64967C9.0031 7.94256 9.0031 8.41743 8.71021 8.71033C8.44394 8.97659 8.02728 9.0008 7.73366 8.78295L7.64955 8.71033L5.35755 6.41833C5.06465 6.12543 5.06465 5.65056 5.35755 5.35767C5.62381 5.0914 6.04048 5.06719 6.33409 5.28505ZM18.675 5.35767C18.9413 5.62393 18.9655 6.0406 18.7476 6.33421L18.675 6.41833L16.383 8.71033C16.0901 9.00322 15.6152 9.00322 15.3223 8.71033C15.0561 8.44406 15.0319 8.0274 15.2497 7.73379L15.3223 7.64967L17.6143 5.35767C17.9072 5.06477 18.3821 5.06477 18.675 5.35767ZM12.0163 2.6001C12.396 2.6001 12.7098 2.88225 12.7594 3.24833L12.7663 3.3501V6.5911C12.7663 7.00531 12.4305 7.3411 12.0163 7.3411C11.6366 7.3411 11.3228 7.05894 11.2731 6.69287L11.2663 6.5911V3.3501C11.2663 2.93588 11.6021 2.6001 12.0163 2.6001Z" fill="black"/>
</svg>
