<svg width="24" height="24" viewBox="0 0 24 24" fill="none" xmlns="http://www.w3.org/2000/svg">
<path fill-rule="evenodd" clip-rule="evenodd" d="M12 2.25C17.3848 2.25 21.75 6.61522 21.75 12C21.75 17.3848 17.3848 21.75 12 21.75C6.61522 21.75 2.25 17.3848 2.25 12C2.25 6.61522 6.61522 2.25 12 2.25ZM12 3.75C7.44365 3.75 3.75 7.44365 3.75 12C3.75 16.5563 7.44365 20.25 12 20.25C16.5563 20.25 20.25 16.5563 20.25 12C20.25 7.44365 16.5563 3.75 12 3.75ZM16.7384 7.82583L16.717 7.91547L14.5957 14.2794C14.5558 14.3989 14.4729 14.4977 14.3649 14.558L14.2794 14.5957L7.91547 16.717C7.55466 16.8373 7.21005 16.5296 7.26164 16.1742L7.28302 16.0845L9.40434 9.72057C9.44415 9.60112 9.5271 9.50225 9.63512 9.442L9.72057 9.40434L16.0845 7.28302C16.4453 7.16275 16.79 7.47035 16.7384 7.82583ZM12 10.75C11.3096 10.75 10.75 11.3096 10.75 12C10.75 12.6904 11.3096 13.25 12 13.25C12.6904 13.25 13.25 12.6904 13.25 12C13.25 11.3096 12.6904 10.75 12 10.75Z" fill="black"/>
</svg>
