<svg width="24" height="24" viewBox="0 0 24 24" fill="none" xmlns="http://www.w3.org/2000/svg">
<path fill-rule="evenodd" clip-rule="evenodd" d="M21 13.75C21.3797 13.75 21.6935 14.0322 21.7432 14.3982L21.75 14.5V20C21.75 20.9182 21.0429 21.6712 20.1435 21.7442L20 21.75H14.5C14.0858 21.75 13.75 21.4142 13.75 21C13.75 20.6203 14.0322 20.3065 14.3982 20.2568L14.5 20.25H20C20.1183 20.25 20.2175 20.1678 20.2434 20.0573L20.25 20V14.5C20.25 14.0858 20.5858 13.75 21 13.75ZM3 13.75C3.3797 13.75 3.69349 14.0322 3.74315 14.3982L3.75 14.5V20C3.75 20.1183 3.83223 20.2175 3.94268 20.2434L4 20.25H9.5C9.91421 20.25 10.25 20.5858 10.25 21C10.25 21.3797 9.96785 21.6935 9.60177 21.7432L9.5 21.75H4C3.08183 21.75 2.32881 21.0429 2.2558 20.1435L2.25 20V14.5C2.25 14.0858 2.58579 13.75 3 13.75ZM20 2.25C20.9182 2.25 21.6712 2.95711 21.7442 3.85647L21.75 4V9.5C21.75 9.91421 21.4142 10.25 21 10.25C20.6203 10.25 20.3065 9.96785 20.2568 9.60177L20.25 9.5V4C20.25 3.88165 20.1678 3.78251 20.0573 3.7566L20 3.75H14.5C14.0858 3.75 13.75 3.41421 13.75 3C13.75 2.6203 14.0322 2.30651 14.3982 2.25685L14.5 2.25H20ZM9.5 2.25C9.91421 2.25 10.25 2.58579 10.25 3C10.25 3.3797 9.96785 3.69349 9.60177 3.74315L9.5 3.75H4C3.88165 3.75 3.78251 3.83223 3.7566 3.94268L3.75 4V9.5C3.75 9.91421 3.41421 10.25 3 10.25C2.6203 10.25 2.30651 9.96785 2.25685 9.60177L2.25 9.5V4C2.25 3.08183 2.95711 2.32881 3.85647 2.2558L4 2.25H9.5Z" fill="black"/>
</svg>
