<svg width="24" height="24" viewBox="0 0 24 24" fill="none" xmlns="http://www.w3.org/2000/svg">
<g clip-path="url(#clip0_6032_31291)">
<path fill-rule="evenodd" clip-rule="evenodd" d="M4 21.75C3.08183 21.75 2.32881 21.0429 2.2558 20.1435L2.25 20L2.25 4C2.25 3.08183 2.95711 2.32881 3.85647 2.2558L4 2.25L15 2.25C15.9182 2.25 16.6712 2.95711 16.7442 3.85647L16.75 4V8C16.75 8.41421 16.4142 8.75 16 8.75C15.6203 8.75 15.3065 8.46785 15.2568 8.10177L15.25 8V4C15.25 3.88165 15.1678 3.78251 15.0573 3.7566L15 3.75L4 3.75C3.88165 3.75 3.78252 3.83223 3.7566 3.94268L3.75 4L3.75 20C3.75 20.1183 3.83223 20.2175 3.94268 20.2434L4 20.25L15 20.25C15.1183 20.25 15.2175 20.1678 15.2434 20.0573L15.25 20V16C15.25 15.5858 15.5858 15.25 16 15.25C16.3797 15.25 16.6935 15.5322 16.7432 15.8982L16.75 16V20C16.75 20.9182 16.0429 21.6712 15.1435 21.7442L15 21.75L4 21.75Z" fill="black"/>
<path fill-rule="evenodd" clip-rule="evenodd" d="M19.2035 8.32412L19.2803 8.39124L22.1088 11.2197C22.3772 11.4882 22.3996 11.9096 22.1759 12.2035L22.1088 12.2803L19.2803 15.1088C18.9874 15.4016 18.5126 15.4016 18.2197 15.1088C17.9512 14.8403 17.9288 14.4189 18.1525 14.1249L18.2197 14.0481L19.767 12.5H8.75C8.33579 12.5 8 12.1642 8 11.75C8 11.3703 8.28215 11.0565 8.64823 11.0068L8.75 11H19.767L18.2197 9.4519C17.9512 9.18342 17.9288 8.76202 18.1525 8.46805L18.2197 8.39124C18.4882 8.12276 18.9096 8.10038 19.2035 8.32412Z" fill="black"/>
</g>
<defs>
<clipPath id="clip0_6032_31291">
<rect width="24" height="24" fill="white"/>
</clipPath>
</defs>
</svg>
