<svg width="24" height="24" viewBox="0 0 24 24" fill="none" xmlns="http://www.w3.org/2000/svg">
<path fill-rule="evenodd" clip-rule="evenodd" d="M16 2.25C16.6982 2.25 17.3008 2.65883 17.5817 3.25015L20 3.25C20.9665 3.25 21.75 4.0335 21.75 5V19C21.75 19.9665 20.9665 20.75 20 20.75H4C3.0335 20.75 2.25 19.9665 2.25 19V5C2.25 4.0335 3.0335 3.25 4 3.25L6.41834 3.25015C6.69917 2.65883 7.30184 2.25 8 2.25C8.69816 2.25 9.30083 2.65883 9.58166 3.25015H14.4183C14.6992 2.65883 15.3018 2.25 16 2.25ZM20.25 8.75H3.75V19C3.75 19.1183 3.83223 19.2175 3.94268 19.2434L4 19.25H20C20.1381 19.25 20.25 19.1381 20.25 19V8.75ZM16.4983 10.4394C16.7797 10.6896 16.8283 11.1041 16.6281 11.41L16.5606 11.4983L11.2272 17.4983C10.961 17.7978 10.5127 17.8312 10.2062 17.5922L10.1264 17.5202L7.45976 14.751C7.17244 14.4526 7.1814 13.9778 7.47977 13.6905C7.75101 13.4293 8.16806 13.413 8.45751 13.6363L8.54024 13.7105L10.644 15.895L15.4394 10.5017C15.7146 10.1921 16.1887 10.1643 16.4983 10.4394ZM6.41881 4.75085L4 4.75C3.86193 4.75 3.75 4.86193 3.75 5V7.25H20.25V5C20.25 4.88165 20.1678 4.78251 20.0573 4.7566L20 4.75L17.5812 4.75085C17.3001 5.34163 16.6978 5.75 16 5.75C15.3022 5.75 14.6999 5.34163 14.4188 4.75085H9.58119C9.30015 5.34163 8.69776 5.75 8 5.75C7.30224 5.75 6.69985 5.34163 6.41881 4.75085Z" fill="black"/>
</svg>
