<svg width="24" height="24" viewBox="0 0 24 24" fill="none" xmlns="http://www.w3.org/2000/svg">
<path fill-rule="evenodd" clip-rule="evenodd" d="M12 2.25C15.7279 2.25 18.75 5.27208 18.75 9C18.75 11.306 16.8914 15.1305 13.1743 20.6122L12.6171 21.4263C12.3189 21.8579 11.6811 21.8579 11.3829 21.4263C7.2944 15.5073 5.25 11.4185 5.25 9C5.25 5.27208 8.27208 2.25 12 2.25ZM12 3.75C9.10051 3.75 6.75 6.10051 6.75 9C6.75 10.7624 8.2688 14.0092 11.3066 18.6311L11.999 19.671L12.173 19.4142C15.4731 14.5006 17.1643 11.037 17.2468 9.14262L17.25 9C17.25 6.10051 14.8995 3.75 12 3.75ZM12 6C13.6569 6 15 7.34315 15 9C15 10.6569 13.6569 12 12 12C10.3431 12 9 10.6569 9 9C9 7.34315 10.3431 6 12 6ZM12 7.5C11.1716 7.5 10.5 8.17157 10.5 9C10.5 9.82843 11.1716 10.5 12 10.5C12.8284 10.5 13.5 9.82843 13.5 9C13.5 8.17157 12.8284 7.5 12 7.5Z" fill="black"/>
</svg>
