<svg width="24" height="24" viewBox="0 0 24 24" fill="none" xmlns="http://www.w3.org/2000/svg">
<path fill-rule="evenodd" clip-rule="evenodd" d="M17 2.75C17.4142 2.75 17.75 3.08579 17.75 3.5V7.75H20C20.9182 7.75 21.6712 8.45711 21.7442 9.35647L21.75 9.5V16.5C21.75 17.4182 21.0429 18.1712 20.1435 18.2442L20 18.25H18.385L18.7398 20.3767C18.8105 20.8012 18.5116 21.1903 18.0975 21.2438L18 21.25H6C5.53655 21.25 5.18401 20.8339 5.2602 20.3767L5.614 18.25H4C3.08183 18.25 2.32881 17.5429 2.2558 16.6435L2.25 16.5V9.5C2.25 8.58183 2.95711 7.82881 3.85647 7.7558L4 7.75H6.25V3.5C6.25 3.1203 6.53215 2.80651 6.89823 2.75685L7 2.75H17ZM16.364 15.25H7.635L6.885 19.75H17.114L16.364 15.25ZM20 9.25H4C3.88165 9.25 3.78251 9.33223 3.7566 9.44268L3.75 9.5V16.5C3.75 16.6183 3.83223 16.7175 3.94268 16.7434L4 16.75H5.864L6.2602 14.3767C6.31445 14.0512 6.57332 13.804 6.89182 13.7578L7 13.75H17C17.3666 13.75 17.6795 14.0151 17.7398 14.3767L18.135 16.75H20C20.1183 16.75 20.2175 16.6678 20.2434 16.5573L20.25 16.5V9.5C20.25 9.38165 20.1678 9.28251 20.0573 9.2566L20 9.25ZM6 10.5C6.55228 10.5 7 10.9477 7 11.5C7 12.0523 6.55228 12.5 6 12.5C5.44772 12.5 5 12.0523 5 11.5C5 10.9477 5.44772 10.5 6 10.5ZM16.25 4.25H7.75V7.75H16.25V4.25Z" fill="black"/>
</svg>
