<svg width="24" height="24" viewBox="0 0 24 24" fill="none" xmlns="http://www.w3.org/2000/svg">
<path fill-rule="evenodd" clip-rule="evenodd" d="M14.32 12C16.5387 12 18.492 13.4621 19.1173 15.5908L19.8704 18.1545C20.3374 19.7442 19.4273 21.4114 17.8376 21.8784C17.563 21.959 17.2782 22 16.992 22H7.00806C5.3512 22 4.00806 20.6569 4.00806 19C4.00806 18.7138 4.04901 18.4291 4.12967 18.1545L4.88276 15.5908C5.50807 13.4621 7.46139 12 9.68006 12H14.32ZM14.32 13.5H9.68006C8.1917 13.5 6.87393 14.4399 6.38145 15.8298L6.32195 16.0136L5.56887 18.5772C5.52853 18.7145 5.50806 18.8569 5.50806 19C5.50806 19.7797 6.10295 20.4204 6.8636 20.4931L7.00806 20.5H16.992C17.1351 20.5 17.2775 20.4795 17.4148 20.4392C18.1629 20.2194 18.61 19.4681 18.4654 18.7178L18.4312 18.5772L17.6782 16.0136C17.2587 14.5855 15.9854 13.5861 14.5132 13.5053L14.32 13.5ZM12.0001 2.25C14.3473 2.25 16.2501 4.15279 16.2501 6.5C16.2501 8.84721 14.3473 10.75 12.0001 10.75C9.65284 10.75 7.75005 8.84721 7.75005 6.5C7.75005 4.15279 9.65284 2.25 12.0001 2.25ZM12.0001 3.75C10.4813 3.75 9.25005 4.98122 9.25005 6.5C9.25005 8.01878 10.4813 9.25 12.0001 9.25C13.5188 9.25 14.7501 8.01878 14.7501 6.5C14.7501 4.98122 13.5188 3.75 12.0001 3.75Z" fill="black"/>
</svg>
