<svg width="24" height="24" viewBox="0 0 24 24" fill="none" xmlns="http://www.w3.org/2000/svg">
<path fill-rule="evenodd" clip-rule="evenodd" d="M3.54646 9.57412C3.84043 9.35038 4.26183 9.37276 4.53031 9.64124L6.65163 11.7626L6.71875 11.8394C6.94249 12.1333 6.92012 12.5547 6.65163 12.8232L6.57483 12.8903C6.28086 13.1141 5.85946 13.0917 5.59097 12.8232L4.74978 11.9826C4.74992 11.9884 4.74998 11.9942 4.74998 12C4.74998 16.0041 7.99592 19.25 12 19.25C14.2257 19.25 16.2843 18.2417 17.6529 16.54C17.9125 16.2172 18.3846 16.166 18.7074 16.4256C19.0301 16.6851 19.0814 17.1572 18.8218 17.48C17.1714 19.5321 14.6849 20.75 12 20.75C7.16749 20.75 3.24998 16.8325 3.24998 12L3.25066 11.98L2.40899 12.8232L2.33219 12.8903C2.03822 13.1141 1.61682 13.0917 1.34833 12.8232C1.05544 12.5303 1.05544 12.0555 1.34833 11.7626L3.46965 9.64124L3.54646 9.57412ZM12 3.25C16.8325 3.25 20.75 7.16751 20.75 12L20.7487 12.018L21.591 11.1768C21.8595 10.9083 22.2809 10.8859 22.5748 11.1097L22.6516 11.1768C22.9201 11.4453 22.9425 11.8667 22.7188 12.1606L22.6516 12.2374L20.5303 14.3588C20.2618 14.6272 19.8404 14.6496 19.5465 14.4259L19.4697 14.3588L17.3483 12.2374C17.0554 11.9445 17.0554 11.4697 17.3483 11.1768C17.6168 10.9083 18.0382 10.8859 18.3322 11.1097L18.409 11.1768L19.2502 12.0184C19.2501 12.0123 19.25 12.0062 19.25 12C19.25 7.99594 16.004 4.75 12 4.75C9.76641 4.75 7.70132 5.7655 6.33308 7.4775C6.07448 7.80107 5.60253 7.85374 5.27896 7.59514C4.95539 7.33653 4.90272 6.86459 5.16132 6.54102C6.81125 4.47657 9.30556 3.25 12 3.25Z" fill="black"/>
</svg>
