<svg width="24" height="24" viewBox="0 0 24 24" fill="none" xmlns="http://www.w3.org/2000/svg">
<g clip-path="url(#clip0_7715_56928)">
<path d="M4.68483 1C3.25493 1 2.07824 2.1419 2.00783 3.5556C2.00766 3.55816 2.008 3.56072 2.00783 3.56328C2.00186 3.60369 1.99931 3.64444 2.00016 3.68536V20.2852C2.00016 21.7601 3.21011 22.9704 4.68484 22.9704H15.4233C16.8979 22.9704 18.108 21.7601 18.108 20.2852V19.7817C18.2679 19.7246 18.4222 19.6579 18.5731 19.5834L21.7383 22.7492H21.7385C21.8715 22.9017 22.0618 22.9922 22.2638 22.9995C22.466 23.0067 22.6623 22.93 22.8059 22.7873C22.9494 22.6447 23.0277 22.4491 23.0219 22.2469C23.0163 22.0445 22.9271 21.8537 22.7757 21.7193L19.7783 18.7213C20.5565 17.9275 21.0366 16.8405 21.0366 15.647C21.0366 13.7425 19.8095 12.1189 18.108 11.5122V5.6382C18.1085 5.52447 18.0824 5.41211 18.0317 5.31031C17.4943 4.22656 17.4408 3.24067 18.0317 2.06058V2.06041C18.1455 1.83329 18.1334 1.56319 17.9997 1.34716C17.866 1.13095 17.6298 0.999663 17.3758 1L4.68483 1ZM4.68483 2.46469H16.3308C16.2897 2.62582 16.2639 2.79207 16.2392 2.95288H9.80993V2.95305C9.78453 2.95169 9.75912 2.95169 9.73372 2.95305C9.53951 2.96311 9.35723 3.0499 9.22715 3.19449C9.09688 3.33891 9.02953 3.5292 9.03959 3.72358C9.04965 3.91779 9.13661 4.10006 9.28103 4.23014C9.42545 4.36041 9.61574 4.42776 9.80994 4.4177H16.2318C16.2569 4.58241 16.2891 4.74389 16.3309 4.90589H4.68492C3.99624 4.90589 3.46458 4.37423 3.46458 3.68538C3.46458 2.99653 3.99624 2.46487 4.68492 2.46487L4.68483 2.46469ZM3.46449 6.0807C3.83143 6.26996 4.2461 6.37056 4.68483 6.37056H16.6433V11.2529C14.2258 11.2529 12.2503 13.2289 12.2503 15.6467C12.2503 18.0649 14.2259 20.0406 16.6433 20.0406V20.2848C16.6433 20.9736 16.1117 21.5053 15.423 21.5053H4.68452C3.99585 21.5053 3.46419 20.9736 3.46419 20.2848L3.46449 6.0807ZM16.6434 12.7178C18.2696 12.7178 19.5721 14.0206 19.5721 15.6471C19.5721 17.2736 18.2696 18.5764 16.6434 18.5764C15.0173 18.5764 13.7148 17.2736 13.7148 15.6471C13.7148 14.0206 15.0173 12.7178 16.6434 12.7178Z" fill="black"/>
</g>
<defs>
<clipPath id="clip0_7715_56928">
<rect width="24" height="24" fill="white"/>
</clipPath>
</defs>
</svg>
