<svg width="24" height="24" viewBox="0 0 24 24" fill="none" xmlns="http://www.w3.org/2000/svg">
<path fill-rule="evenodd" clip-rule="evenodd" d="M10.5 2C15.1944 2 19 5.80558 19 10.5C19 12.5772 18.2549 14.4804 17.0173 15.9569L21.5303 20.4697C21.8232 20.7626 21.8232 21.2374 21.5303 21.5303C21.2641 21.7966 20.8474 21.8208 20.5538 21.6029L20.4697 21.5303L15.9569 17.0173C14.4804 18.2549 12.5772 19 10.5 19C5.80558 19 2 15.1944 2 10.5C2 5.80558 5.80558 2 10.5 2ZM10.5 3.5C6.63401 3.5 3.5 6.63401 3.5 10.5C3.5 14.366 6.63401 17.5 10.5 17.5C14.366 17.5 17.5 14.366 17.5 10.5C17.5 6.63401 14.366 3.5 10.5 3.5Z" fill="black"/>
</svg>
