<svg width="24" height="24" viewBox="0 0 24 24" fill="none" xmlns="http://www.w3.org/2000/svg">
<path fill-rule="evenodd" clip-rule="evenodd" d="M12.9 2.25C13.2066 2.25 13.4822 2.43656 13.5962 2.72114L14.354 4.614L14.646 4.71368C14.8625 4.79231 15.0752 4.88056 15.2835 4.9781L15.556 5.113L17.4322 4.31023C17.6789 4.20459 17.96 4.23961 18.1717 4.39527L18.2579 4.46931L19.5307 5.74211C19.7475 5.95893 19.8105 6.28589 19.6898 6.56775L18.886 8.443L19.0217 8.71617C19.1192 8.92433 19.2075 9.13688 19.2861 9.35324L19.384 9.643L21.2791 10.4039C21.5319 10.5052 21.7074 10.7343 21.7432 10.9992L21.75 11.1V12.9C21.75 13.2066 21.5634 13.4822 21.2789 13.5962L19.385 14.354L19.2863 14.646C19.2077 14.8625 19.1194 15.0752 19.0219 15.2835L18.886 15.556L19.6898 17.4322C19.7954 17.6789 19.7604 17.96 19.6047 18.1717L19.5307 18.2579L18.2579 19.5307C18.0411 19.7475 17.7141 19.8105 17.4322 19.6898L15.556 18.886L15.2838 19.0217C15.0757 19.1192 14.8631 19.2075 14.6468 19.2861L14.356 19.384L13.5961 21.2791C13.4948 21.5319 13.2657 21.7074 13.0008 21.7432L12.9 21.75H11.1C10.7935 21.75 10.5179 21.5635 10.4039 21.2791L9.643 19.384L9.35324 19.2861C9.13688 19.2075 8.92433 19.1192 8.71617 19.0217L8.443 18.886L6.56775 19.6898C6.32113 19.7954 6.03996 19.7604 5.82827 19.6047L5.74211 19.5307L4.46931 18.2579C4.25249 18.0411 4.18949 17.7141 4.31023 17.4322L5.113 15.556L4.97826 15.2838C4.88076 15.0757 4.79255 14.8631 4.71394 14.6468L4.615 14.356L2.7209 13.5961C2.46806 13.4948 2.29264 13.2657 2.25678 13.0008L2.25 12.9V11.1C2.25 10.7934 2.43656 10.5178 2.72114 10.4038L4.614 9.645L4.71368 9.35396C4.79231 9.13747 4.88056 8.9248 4.9781 8.71651L5.113 8.443L4.31023 6.56775C4.20459 6.32113 4.23961 6.03996 4.39527 5.82827L4.46931 5.74211L5.74211 4.46931C5.95893 4.25249 6.28589 4.18949 6.56775 4.31023L8.443 5.113L8.71651 4.9781C8.9248 4.88056 9.13747 4.79231 9.35396 4.71368L9.645 4.614L10.4038 2.72114C10.5051 2.46818 10.7342 2.29267 10.9991 2.25679L11.1 2.25H12.9ZM12.392 3.75H11.607L10.9022 5.51087C10.8267 5.69956 10.6784 5.84809 10.4932 5.92484L10.3977 5.95709C9.85766 6.09986 9.34112 6.31456 8.86016 6.59461C8.65509 6.71402 8.40559 6.72933 8.18745 6.63588L6.443 5.888L5.888 6.443L6.63588 8.18745C6.71375 8.36924 6.7161 8.57279 6.64562 8.75427L6.59461 8.86016C6.31456 9.34112 6.09986 9.85766 5.95709 10.3977C5.89648 10.627 5.73101 10.8141 5.51087 10.9022L3.749 11.607V12.391L5.51137 13.0989C5.69994 13.1745 5.84836 13.3226 5.92509 13.5077L5.95733 13.6032C6.1001 14.1429 6.31471 14.6591 6.59461 15.1398C6.71402 15.3449 6.72933 15.5944 6.63588 15.8125L5.888 17.556L6.443 18.111L8.18745 17.3641C8.36924 17.2862 8.57279 17.2839 8.75427 17.3544L8.86016 17.4054C9.34086 17.6853 9.85709 17.8999 10.3968 18.0427C10.6259 18.1033 10.8129 18.2686 10.9011 18.4886L11.608 20.25H12.391L13.0989 18.4886C13.1745 18.3001 13.3226 18.1516 13.5077 18.0749L13.6032 18.0427C14.1429 17.8999 14.6591 17.6853 15.1398 17.4054C15.3449 17.286 15.5944 17.2707 15.8125 17.3641L17.556 18.111L18.111 17.556L17.3641 15.8125C17.2862 15.6308 17.2839 15.4272 17.3544 15.2457L17.4054 15.1398C17.6854 14.6589 17.9001 14.1423 18.0429 13.6023C18.1035 13.373 18.269 13.1859 18.4891 13.0978L20.25 12.392V11.608L18.4886 10.9011C18.3001 10.8255 18.1516 10.6774 18.0749 10.4923L18.0427 10.3968C17.8999 9.85709 17.6853 9.34086 17.4054 8.86016C17.286 8.65509 17.2707 8.40559 17.3641 8.18745L18.111 6.443L17.556 5.888L15.8125 6.63588C15.6308 6.71375 15.4272 6.7161 15.2457 6.64562L15.1398 6.59461C14.6589 6.31456 14.1423 6.09986 13.6023 5.95709C13.373 5.89648 13.1859 5.73101 13.0978 5.51087L12.392 3.75ZM12 8C14.2091 8 16 9.79086 16 12C16 14.2091 14.2091 16 12 16C9.79086 16 8 14.2091 8 12C8 9.79086 9.79086 8 12 8ZM12 9.5C10.6193 9.5 9.5 10.6193 9.5 12C9.5 13.3807 10.6193 14.5 12 14.5C13.3807 14.5 14.5 13.3807 14.5 12C14.5 10.6193 13.3807 9.5 12 9.5Z" fill="black"/>
</svg>
