<svg width="24" height="24" viewBox="0 0 24 24" fill="none" xmlns="http://www.w3.org/2000/svg">
<path fill-rule="evenodd" clip-rule="evenodd" d="M17.25 9C17.25 6.10051 14.8995 3.75 12 3.75C9.17299 3.75 6.86787 5.98445 6.75438 8.7836L6.75 9V11H8C8.55228 11 9 11.4477 9 12V20C9 20.5523 8.55228 21 8 21H5C3.34315 21 2 19.6569 2 18V14C2 12.3431 3.34315 11 5 11H5.25V9C5.25 5.27208 8.27208 2.25 12 2.25C15.6486 2.25 18.6211 5.14485 18.7459 8.76303L18.75 9V11H19C20.6569 11 22 12.3431 22 14V18C22 19.6569 20.6569 21 19 21H16C15.4477 21 15 20.5523 15 20V12C15 11.4477 15.4477 11 16 11H17.25V9ZM7.5 12.5H5C4.2203 12.5 3.57955 13.0949 3.50687 13.8555L3.5 14V18C3.5 18.7797 4.09489 19.4204 4.85554 19.4931L5 19.5H7.5V12.5ZM19 12.5H16.5V19.5H19C19.7797 19.5 20.4204 18.9051 20.4931 18.1445L20.5 18V14C20.5 13.2203 19.9051 12.5796 19.1445 12.5069L19 12.5Z" fill="black"/>
</svg>
