<svg width="24" height="24" viewBox="0 0 24 24" fill="none" xmlns="http://www.w3.org/2000/svg">
<path fill-rule="evenodd" clip-rule="evenodd" d="M4 3.24854L20.0082 3.32375C20.9715 3.32827 21.75 4.11044 21.75 5.07373V15.8667L21.7443 16.0139C21.6693 16.9852 20.8573 17.7499 19.8668 17.7499L10.592 17.7498L6.91852 21.5379L6.84172 21.6076C6.36552 21.9858 5.63006 21.6542 5.63006 21.0159L5.631 17.7498L4 17.7499C3.0335 17.7499 2.25 16.9664 2.25 15.9999V4.99854C2.25 4.03204 3.0335 3.24854 4 3.24854ZM4.00117 4.74854C3.86193 4.74854 3.75 4.86046 3.75 4.99854V15.9999C3.75 16.138 3.86193 16.2499 4 16.2499H6.38006L6.48183 16.2568C6.8479 16.3064 7.13006 16.6202 7.13006 16.9999L7.131 19.1638L9.7352 16.4779C9.87646 16.3322 10.0707 16.2499 10.2737 16.2499H19.8668C20.0784 16.2499 20.25 16.0784 20.25 15.8667V5.07373C20.25 4.93611 20.1388 4.82438 20.0012 4.82373L4.00117 4.74854ZM12 13.4998C12.4142 13.4998 12.75 13.8356 12.75 14.2498C12.75 14.664 12.4142 14.9998 12 14.9998C11.5858 14.9998 11.25 14.664 11.25 14.2498C11.25 13.8356 11.5858 13.4998 12 13.4998ZM12 5.74983C13.5188 5.74983 14.75 6.98105 14.75 8.49983C14.75 9.75841 13.9045 10.8195 12.7506 11.1462L12.75 11.9998C12.75 12.414 12.4142 12.7498 12 12.7498C11.6203 12.7498 11.3065 12.4677 11.2568 12.1016L11.25 11.9998V10.4998C11.25 10.1201 11.5322 9.80634 11.8982 9.75668L12 9.74983C12.6904 9.74983 13.25 9.19019 13.25 8.49983C13.25 7.80948 12.6904 7.24983 12 7.24983C11.6195 7.24983 11.2685 7.4199 11.0318 7.70905C10.8806 7.89392 10.7857 8.11624 10.7583 8.35487L10.75 8.49983C10.75 8.91405 10.4142 9.24983 10 9.24983C9.58579 9.24983 9.25 8.91405 9.25 8.49983C9.25 7.85715 9.4721 7.24654 9.871 6.75908C10.3896 6.12541 11.1648 5.74983 12 5.74983Z" fill="black"/>
</svg>
