<svg width="24" height="24" viewBox="0 0 24 24" fill="none" xmlns="http://www.w3.org/2000/svg">
<path fill-rule="evenodd" clip-rule="evenodd" d="M18.4535 12.5739L18.5303 12.6411L21.3588 15.4695C21.6272 15.738 21.6496 16.1594 21.4259 16.4533L21.3588 16.5301L18.5303 19.3586C18.2374 19.6515 17.7626 19.6515 17.4697 19.3586C17.2012 19.0901 17.1788 18.6687 17.4025 18.3747L17.4697 18.2979L19.018 16.7484L19 16.7498H3C2.58579 16.7498 2.25 16.414 2.25 15.9998C2.25 15.6201 2.53215 15.3063 2.89823 15.2567L3 15.2498H19L19.018 15.2504L17.4697 13.7017C17.2012 13.4332 17.1788 13.0118 17.4025 12.7179L17.4697 12.6411C17.7382 12.3726 18.1596 12.3502 18.4535 12.5739ZM6.53033 4.64106C6.79882 4.90954 6.82119 5.33094 6.59745 5.62491L6.53033 5.70172L4.981 7.25039L5 7.24981H21C21.4142 7.24981 21.75 7.5856 21.75 7.99981C21.75 8.37951 21.4678 8.6933 21.1018 8.74297L21 8.74981H5L4.981 8.74839L6.53033 10.2979C6.79882 10.5664 6.82119 10.9878 6.59745 11.2818L6.53033 11.3586C6.26184 11.6271 5.84045 11.6494 5.54647 11.4257L5.46967 11.3586L2.64124 8.53014C2.37276 8.26166 2.35038 7.84026 2.57412 7.54629L2.64124 7.46948L5.46967 4.64106C5.76256 4.34816 6.23744 4.34816 6.53033 4.64106Z" fill="black"/>
</svg>
