<svg width="24" height="24" viewBox="0 0 24 24" fill="none" xmlns="http://www.w3.org/2000/svg">
<path fill-rule="evenodd" clip-rule="evenodd" d="M18 3.25C20.0711 3.25 21.75 4.92893 21.75 7V17C21.75 19.0711 20.0711 20.75 18 20.75H6C3.92893 20.75 2.25 19.0711 2.25 17V7C2.25 4.92893 3.92893 3.25 6 3.25H18ZM18 4.75H6C4.75736 4.75 3.75 5.75736 3.75 7V17C3.75 18.2426 4.75736 19.25 6 19.25H18C19.2426 19.25 20.25 18.2426 20.25 17V7C20.25 5.75736 19.2426 4.75 18 4.75ZM8.75 9C8.75 8.44246 9.33673 8.07984 9.83541 8.32918L15.8354 11.3292C16.3882 11.6056 16.3882 12.3944 15.8354 12.6708L9.83541 15.6708C9.33673 15.9202 8.75 15.5575 8.75 15V9ZM10.25 10.213V13.786L13.823 12L10.25 10.213Z" fill="black"/>
</svg>
