<svg width="8" height="8" viewBox="0 0 8 8" fill="none" xmlns="http://www.w3.org/2000/svg">
    <path fill-rule="evenodd" clip-rule="evenodd" d="M0.832147 0.102297L0.890665 0.152814L4 3.26191L7.10933 0.152814C7.31309 -0.0509379 7.64343 -0.0509379 7.84719 0.152814C8.03241 0.338043 8.04925 0.627896 7.8977 0.832147L7.84719 0.890665L4.73809 4L7.84719 7.10933C8.05094 7.31309 8.05094 7.64343 7.84719 7.84719C7.66196 8.03241 7.3721 8.04925 7.16785 7.8977L7.10933 7.84719L4 4.73809L0.890665 7.84719C0.686913 8.05094 0.356566 8.05094 0.152814 7.84719C-0.0324151 7.66196 -0.0492539 7.3721 0.102297 7.16785L0.152814 7.10933L3.26191 4L0.152814 0.890665C-0.0509379 0.686913 -0.0509379 0.356566 0.152814 0.152814C0.338043 -0.0324151 0.627896 -0.0492539 0.832147 0.102297Z" fill="black"/>
</svg>
