<svg width="24" height="24" viewBox="0 0 24 24" fill="none" xmlns="http://www.w3.org/2000/svg">
<g clip-path="url(#clip0)">
<path fill-rule="evenodd" clip-rule="evenodd" d="M17.3235 10.9785C14.4225 9.25575 9.6375 9.0975 6.86775 9.93825C6.423 10.0733 5.95275 9.822 5.8185 9.37725C5.6835 8.9325 5.934 8.46225 6.3795 8.32725C9.55875 7.362 14.8432 7.54875 18.183 9.531C18.5827 9.76875 18.714 10.2847 18.477 10.6845C18.24 11.0843 17.7232 11.2162 17.3235 10.9785ZM17.229 13.5308C17.025 13.8608 16.5938 13.9642 16.2638 13.7618C13.845 12.2753 10.1573 11.844 7.29525 12.7125C6.92475 12.825 6.5325 12.6157 6.42 12.2452C6.30825 11.874 6.5175 11.4832 6.888 11.37C10.1565 10.3785 14.22 10.8585 16.998 12.5662C17.328 12.7688 17.4315 13.2015 17.229 13.5308ZM16.1273 15.981C15.966 16.2465 15.6203 16.3297 15.3563 16.1677C13.2428 14.8762 10.5825 14.5845 7.44975 15.3C7.14825 15.369 6.8475 15.18 6.7785 14.8785C6.7095 14.5763 6.89775 14.2755 7.2 14.2065C10.6283 13.4228 13.569 13.7603 15.9412 15.21C16.206 15.3713 16.2893 15.717 16.1273 15.981ZM12 3C7.02975 3 3 7.02975 3 12C3 16.971 7.02975 21 12 21C16.971 21 21 16.971 21 12C21 7.02975 16.971 3 12 3Z" fill="black"/>
</g>
<defs>
<clipPath id="clip0">
<rect width="18" height="18" fill="white" transform="translate(3 3)"/>
</clipPath>
</defs>
</svg>
