<svg width="24" height="24" viewBox="0 0 24 24" fill="none" xmlns="http://www.w3.org/2000/svg">
<path fill-rule="evenodd" clip-rule="evenodd" d="M20 5.25C20.9665 5.25 21.75 6.0335 21.75 7V17C21.75 17.9665 20.9665 18.75 20 18.75H9.41418C8.95006 18.75 8.50494 18.5656 8.17675 18.2374L3.17675 13.2374C2.49333 12.554 2.49333 11.446 3.17675 10.7626L8.17675 5.76256C8.50494 5.43437 8.95006 5.25 9.41418 5.25H20ZM20 6.75H9.41418C9.34788 6.75 9.28429 6.77634 9.23741 6.82322L4.23741 11.8232C4.13978 11.9209 4.13978 12.0791 4.23741 12.1768L9.23741 17.1768C9.28429 17.2237 9.34788 17.25 9.41418 17.25H20C20.138 17.25 20.25 17.1381 20.25 17V7C20.25 6.86193 20.138 6.75 20 6.75ZM12.4462 9.39705L12.5303 9.46967L14.0002 10.939L15.4696 9.46967C15.7625 9.17678 16.2374 9.17678 16.5303 9.46967C16.7966 9.73594 16.8208 10.1526 16.6029 10.4462L16.5303 10.5303L15.0612 12L16.5303 13.4697C16.8232 13.7626 16.8232 14.2374 16.5303 14.5303C16.264 14.7966 15.8474 14.8208 15.5538 14.6029L15.4696 14.5303L14.0002 13.061L12.5303 14.5303C12.2374 14.8232 11.7625 14.8232 11.4696 14.5303C11.2034 14.2641 11.1792 13.8474 11.397 13.5538L11.4696 13.4697L12.9392 12L11.4696 10.5303C11.1767 10.2374 11.1767 9.76256 11.4696 9.46967C11.7359 9.2034 12.1526 9.1792 12.4462 9.39705Z" fill="black"/>
</svg>
