<svg width="24" height="24" viewBox="0 0 24 24" fill="none" xmlns="http://www.w3.org/2000/svg">
<path fill-rule="evenodd" clip-rule="evenodd" d="M20 5.25C20.9665 5.25 21.75 6.0335 21.75 7V17C21.75 17.9665 20.9665 18.75 20 18.75H4C3.0335 18.75 2.25 17.9665 2.25 17V7C2.25 6.0335 3.0335 5.25 4 5.25H20ZM20.25 10.75H3.75V17C3.75 17.1381 3.86193 17.25 4 17.25H20C20.1381 17.25 20.25 17.1381 20.25 17V10.75ZM10 13.25C10.4142 13.25 10.75 13.5858 10.75 14C10.75 14.3797 10.4678 14.6935 10.1018 14.7432L10 14.75H6C5.58579 14.75 5.25 14.4142 5.25 14C5.25 13.6203 5.53215 13.3065 5.89823 13.2568L6 13.25H10ZM20 6.75H4C3.86193 6.75 3.75 6.86193 3.75 7V9.25H20.25V7C20.25 6.86193 20.1381 6.75 20 6.75Z" fill="black"/>
</svg>
