<svg width="24" height="24" viewBox="0 0 24 24" fill="none" xmlns="http://www.w3.org/2000/svg">
<path fill-rule="evenodd" clip-rule="evenodd" d="M4 2.59388C4.17035 2.59388 4.33979 2.61875 4.50295 2.66771L11.9264 4.89519C11.9733 4.90925 12.0232 4.90925 12.0701 4.8952L19.4972 2.6675C20.423 2.38983 21.3986 2.9152 21.6762 3.84096C21.7251 4.00406 21.75 4.17344 21.75 4.34372V17.5559C21.75 18.3286 21.2432 19.0098 20.5031 19.232L12.5081 21.6319C12.1801 21.7303 11.8305 21.7304 11.5024 21.632L3.49741 19.2319C2.75705 19.0099 2.25 18.3285 2.25 17.5556V4.34388C2.25 3.37738 3.0335 2.59388 4 2.59388ZM4 4.09388C3.86193 4.09388 3.75 4.20581 3.75 4.34388V17.5556C3.75 17.666 3.82244 17.7634 3.9282 17.7951L11.255 19.9913L11.25 6.25826L4.07185 4.10442C4.0602 4.10093 4.04832 4.09829 4.03631 4.09653L4 4.09388ZM19.985 4.09412L19.9282 4.10426L12.75 6.25626L12.755 19.9903L20.0719 17.7953C20.1565 17.7699 20.2197 17.7026 20.2416 17.6201L20.25 17.5559V4.34372C20.25 4.3194 20.2464 4.2952 20.2395 4.2719C20.1998 4.13965 20.0604 4.06459 19.9282 4.10426L19.985 4.09412Z" fill="black"/>
</svg>
