<svg width="24" height="24" viewBox="0 0 24 24" fill="none" xmlns="http://www.w3.org/2000/svg">
<path fill-rule="evenodd" clip-rule="evenodd" d="M14.4648 4.25C15.0381 4.25 15.5789 4.52014 15.9072 4.97968L17.386 7.05H20C20.9051 7.05 21.6659 7.71563 21.7435 8.58639L21.75 8.73333V18.0667C21.75 19.0084 20.9554 19.75 20 19.75H4C3.04462 19.75 2.25 19.0084 2.25 18.0667V8.73333C2.25 7.79165 3.04462 7.05 4 7.05H6.613L8.09283 4.97968C8.38826 4.56609 8.85586 4.30592 9.36435 4.25802L9.53518 4.25H14.4648ZM14.4648 5.75H9.53518C9.43977 5.75 9.35612 5.79178 9.31343 5.85154L7.6103 8.23593C7.46952 8.43303 7.24221 8.55 7 8.55H4C3.85081 8.55 3.75 8.64409 3.75 8.73333V18.0667C3.75 18.1559 3.85081 18.25 4 18.25H20C20.1492 18.25 20.25 18.1559 20.25 18.0667V8.73333C20.25 8.64409 20.1492 8.55 20 8.55H17C16.7578 8.55 16.5305 8.43303 16.3897 8.23593L14.6866 5.85154C14.6439 5.79178 14.5602 5.75 14.4648 5.75ZM12 8.75C14.3472 8.75 16.25 10.6528 16.25 13C16.25 15.3472 14.3472 17.25 12 17.25C9.65279 17.25 7.75 15.3472 7.75 13C7.75 10.6528 9.65279 8.75 12 8.75ZM12 10.25C10.4812 10.25 9.25 11.4812 9.25 13C9.25 14.5188 10.4812 15.75 12 15.75C13.5188 15.75 14.75 14.5188 14.75 13C14.75 11.4812 13.5188 10.25 12 10.25Z" fill="black"/>
</svg>
