<svg width="24" height="24" viewBox="0 0 24 24" fill="none" xmlns="http://www.w3.org/2000/svg">
<path fill-rule="evenodd" clip-rule="evenodd" d="M12.711 17.2932C13.103 17.6852 13.103 18.3193 12.711 18.7103C12.319 19.1023 11.685 19.1023 11.294 18.7103C10.902 18.3193 10.902 17.6852 11.294 17.2932C11.685 16.9022 12.319 16.9022 12.711 17.2932ZM20 4.75C20.9182 4.75 21.6712 5.45711 21.7442 6.35647L21.75 6.5V17C21.75 17.9182 21.0429 18.6712 20.1435 18.7442L20 18.75H15.6883C15.2741 18.75 14.9383 18.4142 14.9383 18C14.9383 17.6203 15.2204 17.3065 15.5865 17.2568L15.6883 17.25H20C20.1183 17.25 20.2175 17.1678 20.2434 17.0573L20.25 17V6.5C20.25 6.38165 20.1678 6.28251 20.0573 6.2566L20 6.25H4C3.88165 6.25 3.78251 6.33223 3.7566 6.44268L3.75 6.5V17C3.75 17.1183 3.83223 17.2175 3.94268 17.2434L4 17.25H8.31171C8.72592 17.25 9.06171 17.5858 9.06171 18C9.06171 18.3797 8.77955 18.6935 8.41348 18.7432L8.31171 18.75H4C3.08183 18.75 2.32881 18.0429 2.2558 17.1435L2.25 17V6.5C2.25 5.58183 2.95711 4.82881 3.85647 4.7558L4 4.75H20ZM15.0209 14.4604C15.3189 14.7481 15.3273 15.2229 15.0396 15.5209C14.7519 15.8189 14.2771 15.8273 13.9791 15.5396C12.8885 14.4868 11.1115 14.4868 10.0209 15.5396C9.7229 15.8273 9.2481 15.8189 8.96041 15.5209C8.67272 15.2229 8.68109 14.7481 8.9791 14.4604C10.6509 12.8465 13.3491 12.8465 15.0209 14.4604ZM17.5211 12.4606C17.819 12.7483 17.8272 13.2231 17.5394 13.5211C17.2517 13.819 16.7769 13.8272 16.4789 13.5394C14.0089 11.1535 9.99202 11.1535 7.52097 13.5395C7.22299 13.8273 6.74819 13.8189 6.46047 13.521C6.17275 13.223 6.18106 12.7482 6.47903 12.4605C9.53137 9.51316 14.4698 9.51316 17.5211 12.4606Z" fill="black"/>
</svg>
