<svg width="24" height="24" viewBox="0 0 24 24" fill="none" xmlns="http://www.w3.org/2000/svg">
<path fill-rule="evenodd" clip-rule="evenodd" d="M7.44621 6.39705L7.53033 6.46967L12 10.939L16.4697 6.46967C16.7626 6.17678 17.2374 6.17678 17.5303 6.46967C17.7966 6.73594 17.8208 7.1526 17.6029 7.44621L17.5303 7.53033L13.061 12L17.5303 16.4697C17.8232 16.7626 17.8232 17.2374 17.5303 17.5303C17.2641 17.7966 16.8474 17.8208 16.5538 17.6029L16.4697 17.5303L12 13.061L7.53033 17.5303C7.23744 17.8232 6.76256 17.8232 6.46967 17.5303C6.2034 17.2641 6.1792 16.8474 6.39705 16.5538L6.46967 16.4697L10.939 12L6.46967 7.53033C6.17678 7.23744 6.17678 6.76256 6.46967 6.46967C6.73594 6.2034 7.1526 6.1792 7.44621 6.39705Z" fill="black"/>
</svg>
