<svg width="24" height="24" viewBox="0 0 24 24" fill="none" xmlns="http://www.w3.org/2000/svg">
<path fill-rule="evenodd" clip-rule="evenodd" d="M14 3.25018C14.4142 3.25018 14.75 3.58597 14.75 4.00018C14.75 4.37988 14.4678 4.69367 14.1018 4.74333L14 4.75018H7C5.80914 4.75018 4.83436 5.67534 4.75519 6.84613L4.75 7.00018V17.0002C4.75 18.191 5.67516 19.1658 6.84595 19.245L7 19.2502H17C18.1909 19.2502 19.1656 18.325 19.2448 17.1542L19.25 17.0002V10.0002C19.25 9.58597 19.5858 9.25018 20 9.25018C20.3797 9.25018 20.6935 9.53233 20.7432 9.89841L20.75 10.0002V17.0002C20.75 19.0044 19.1776 20.6415 17.1992 20.745L17 20.7502H7C4.99574 20.7502 3.35873 19.1778 3.2552 17.1993L3.25 17.0002V7.00018C3.25 4.99592 4.82236 3.35891 6.80084 3.25538L7 3.25018H14ZM19.5106 1.61127C19.8035 1.31838 20.2784 1.31838 20.5712 1.61127L22.5511 3.59117C22.844 3.88406 22.844 4.35894 22.5511 4.65183L14.1515 13.0514C14.0477 13.1553 13.9156 13.2264 13.7717 13.2559L11.2819 13.7658C10.7546 13.8738 10.2886 13.4078 10.3966 12.8806L10.9066 10.3907C10.936 10.2468 11.0071 10.1147 11.111 10.0109L19.5106 1.61127ZM17.814 5.4296L12.3306 10.914L12.0937 12.0687L13.2492 11.8325L18.732 6.3486L17.814 5.4296ZM20.0416 3.20297L18.875 4.3696L19.793 5.2876L20.9602 4.1215L20.0416 3.20297Z" fill="black"/>
</svg>
