<svg width="24" height="24" viewBox="0 0 24 24" fill="none" xmlns="http://www.w3.org/2000/svg">
<path fill-rule="evenodd" clip-rule="evenodd" d="M18 2.25C18.9665 2.25 19.75 3.0335 19.75 4V20C19.75 20.9665 18.9665 21.75 18 21.75H6C5.0335 21.75 4.25 20.9665 4.25 20V4C4.25 3.0335 5.0335 2.25 6 2.25H18ZM18 3.75H6C5.86193 3.75 5.75 3.86193 5.75 4V20C5.75 20.1381 5.86193 20.25 6 20.25H18C18.1381 20.25 18.25 20.1381 18.25 20V4C18.25 3.86193 18.1381 3.75 18 3.75ZM12 14.25C12.4142 14.25 12.75 14.5858 12.75 15C12.75 15.3797 12.4678 15.6935 12.1018 15.7432L12 15.75H8C7.58579 15.75 7.25 15.4142 7.25 15C7.25 14.6203 7.53215 14.3065 7.89823 14.2568L8 14.25H12ZM16 10.25C16.4142 10.25 16.75 10.5858 16.75 11C16.75 11.3797 16.4678 11.6935 16.1018 11.7432L16 11.75H8C7.58579 11.75 7.25 11.4142 7.25 11C7.25 10.6203 7.53215 10.3065 7.89823 10.2568L8 10.25H16ZM16 6.25C16.4142 6.25 16.75 6.58579 16.75 7C16.75 7.3797 16.4678 7.69349 16.1018 7.74315L16 7.75H8C7.58579 7.75 7.25 7.41421 7.25 7C7.25 6.6203 7.53215 6.30651 7.89823 6.25685L8 6.25H16Z" fill="black"/>
</svg>
