<svg width="24" height="24" viewBox="0 0 24 24" fill="none" xmlns="http://www.w3.org/2000/svg">
<path fill-rule="evenodd" clip-rule="evenodd" d="M12 16.75C12.3797 16.75 12.6935 16.4678 12.7432 16.1018L12.75 16V3C12.75 2.58579 12.4142 2.25 12 2.25C11.6203 2.25 11.3065 2.53215 11.2568 2.89823L11.25 3V16C11.25 16.4142 11.5858 16.75 12 16.75ZM12 21.75C12.8284 21.75 13.5 21.0784 13.5 20.25C13.5 19.4216 12.8284 18.75 12 18.75C11.1716 18.75 10.5 19.4216 10.5 20.25C10.5 21.0784 11.1716 21.75 12 21.75Z" fill="black"/>
</svg>
