<svg width="24" height="24" viewBox="0 0 24 24" fill="none" xmlns="http://www.w3.org/2000/svg">
<path fill-rule="evenodd" clip-rule="evenodd" d="M5.07941 19.8058C4.55219 19.9138 4.0862 19.4478 4.19418 18.9205L4.92266 15.3636C4.95213 15.2197 5.02321 15.0877 5.12708 14.9838L17.1265 2.98435C17.4194 2.69145 17.8943 2.69145 18.1872 2.98435L21.0156 5.81277C21.3085 6.10567 21.3085 6.58054 21.0156 6.87343L9.01617 18.8729C8.9123 18.9767 8.78022 19.0478 8.63632 19.0773L5.07941 19.8058ZM15.5348 6.69736L17.3026 8.46513L19.4246 6.3431L17.6568 4.57534L15.5348 6.69736ZM5.8913 18.1087L8.11374 17.654L16.2419 9.52579L14.4742 7.75802L6.34668 15.8855L5.8913 18.1087Z" fill="black"/>
</svg>
