<svg width="24" height="24" viewBox="0 0 24 24" fill="none" xmlns="http://www.w3.org/2000/svg">
<path fill-rule="evenodd" clip-rule="evenodd" d="M16.6771 3.25C14.8566 3.25 13.7185 3.79985 12.5208 5.06515L12.2674 5.34071L12 5.645L11.7332 5.3416C11.6448 5.24305 11.5618 5.15279 11.4799 5.06619C10.2816 3.80022 9.14311 3.25 7.32246 3.25C4.3051 3.25 2.25 5.32793 2.25 8.36082C2.25 10.2016 3.09598 12.0853 4.72083 13.7042L11.4665 20.5273C11.7601 20.8242 12.2396 20.8242 12.5331 20.5273L19.2839 13.7003C20.9043 12.0852 21.75 10.2015 21.75 8.36082C21.75 5.32801 19.6945 3.25 16.6771 3.25ZM16.6771 4.75C18.8624 4.75 20.25 6.1528 20.25 8.36082L20.243 8.61321C20.168 9.96328 19.4936 11.3734 18.2211 12.6417L12 18.932L5.78354 12.6456C4.4271 11.2941 3.75 9.78647 3.75 8.36082C3.75 6.15267 5.13726 4.75 7.32246 4.75C8.70504 4.75 9.46108 5.11537 10.3905 6.0973L10.6194 6.34637L11.4308 7.28645C11.73 7.63507 12.2696 7.6351 12.5689 7.28651L13.1163 6.64707C13.31 6.42292 13.4641 6.25066 13.6102 6.09631C14.539 5.11505 15.2946 4.75 16.6771 4.75Z" fill="black"/>
</svg>
