<svg width="24" height="24" viewBox="0 0 24 24" fill="none" xmlns="http://www.w3.org/2000/svg">
<path fill-rule="evenodd" clip-rule="evenodd" d="M15 17.25C15.4142 17.25 15.75 17.5858 15.75 18C15.75 18.3797 15.4678 18.6935 15.1018 18.7432L15 18.75H9C8.58579 18.75 8.25 18.4142 8.25 18C8.25 17.6203 8.53215 17.3065 8.89823 17.2568L9 17.25H15ZM18 11.25C18.4142 11.25 18.75 11.5858 18.75 12C18.75 12.3797 18.4678 12.6935 18.1018 12.7432L18 12.75H6C5.58579 12.75 5.25 12.4142 5.25 12C5.25 11.6203 5.53215 11.3065 5.89823 11.2568L6 11.25H18ZM21 5.25C21.4142 5.25 21.75 5.58579 21.75 6C21.75 6.3797 21.4678 6.69349 21.1018 6.74315L21 6.75H3C2.58579 6.75 2.25 6.41421 2.25 6C2.25 5.6203 2.53215 5.30651 2.89823 5.25685L3 5.25H21Z" fill="black"/>
</svg>
