<svg width="24" height="24" viewBox="0 0 24 24" fill="none" xmlns="http://www.w3.org/2000/svg">
<path fill-rule="evenodd" clip-rule="evenodd" d="M12.2072 0.537504L12.2808 0.578552L15.2808 2.57855C15.5541 2.76072 15.5789 3.14231 15.3553 3.36073L15.2808 3.421L12.2808 5.421C11.9684 5.62927 11.5575 5.43619 11.5004 5.08381L11.4937 4.99978L11.4934 3.76508C7.17299 4.02679 3.75 7.61354 3.75 11.9998C3.75 16.5561 7.44365 20.2498 12 20.2498C16.5563 20.2498 20.25 16.5561 20.25 11.9998C20.25 11.5856 20.5858 11.2498 21 11.2498C21.4142 11.2498 21.75 11.5856 21.75 11.9998C21.75 17.3846 17.3848 21.7498 12 21.7498C6.61522 21.7498 2.25 17.3846 2.25 11.9998C2.25 6.78507 6.34383 2.52654 11.4929 2.26274L11.4937 0.999777C11.4937 0.624319 11.8823 0.38955 12.2072 0.537504ZM15.7108 8.99978V9.89793H13.4722L13.351 11.3239L13.4748 11.2668C13.557 11.2318 13.6386 11.203 13.7194 11.1803C13.8407 11.1464 13.979 11.1294 14.1345 11.1294C14.3894 11.1294 14.6304 11.1664 14.8574 11.2405C15.0843 11.3146 15.2818 11.4272 15.4497 11.5785C15.6176 11.7297 15.7513 11.9211 15.8508 12.1526C15.9503 12.384 16 12.6572 16 12.972C16 13.293 15.9425 13.58 15.8274 13.8331C15.7124 14.0862 15.5585 14.2992 15.3657 14.472C15.1729 14.6448 14.9506 14.776 14.6988 14.8655C14.4469 14.955 14.1842 14.9998 13.9106 14.9998C13.4318 14.9998 13.0291 14.918 12.7027 14.7544C12.3762 14.5908 12.1042 14.401 11.8865 14.185L12.3809 13.4998L12.5685 13.6598C12.6984 13.762 12.8379 13.8552 12.9872 13.9396C13.211 14.0661 13.4722 14.1294 13.7707 14.1294C14.1065 14.1294 14.3817 14.0306 14.5962 13.8331C14.8107 13.6356 14.918 13.3578 14.918 12.9998C14.918 12.6479 14.8185 12.3763 14.6195 12.185C14.4205 11.9936 14.1562 11.8979 13.8267 11.8979C13.6339 11.8979 13.4722 11.9242 13.3416 11.9766C13.211 12.0291 13.0556 12.114 12.8752 12.2313L12.3622 11.9072L12.5394 8.99978H15.7108ZM10.4065 8.99978V14.0183H11.5725V14.8887H8V14.0183H9.32452V10.1479H8.23319V9.48126L8.44918 9.43757C8.65731 9.39185 8.84182 9.34005 9.00272 9.28218C9.21726 9.20502 9.4178 9.11089 9.60435 8.99978H10.4065Z" fill="black"/>
</svg>
