<svg width="24" height="24" viewBox="0 0 24 24" fill="none" xmlns="http://www.w3.org/2000/svg">
<path fill-rule="evenodd" clip-rule="evenodd" d="M21 14.25C21.4142 14.25 21.75 14.5858 21.75 15C21.75 15.3797 21.4678 15.6935 21.1018 15.7432L21 15.75H15.9231C15.8466 15.75 15.7817 15.7996 15.7588 15.8684L15.75 15.9231V21C15.75 21.4142 15.4142 21.75 15 21.75C14.6203 21.75 14.3065 21.4678 14.2568 21.1018L14.25 21V15.9231C14.25 15.0477 14.9223 14.3293 15.7787 14.2561L15.9231 14.25H21ZM8.07692 14.25C8.95231 14.25 9.67067 14.9223 9.74386 15.7787L9.75 15.9231V21C9.75 21.4142 9.41421 21.75 9 21.75C8.6203 21.75 8.30651 21.4678 8.25685 21.1018L8.25 21V15.9231C8.25 15.8466 8.20041 15.7817 8.13163 15.7588L8.07692 15.75H3C2.58579 15.75 2.25 15.4142 2.25 15C2.25 14.6203 2.53215 14.3065 2.89823 14.2568L3 14.25H8.07692ZM15 2.25C15.3797 2.25 15.6935 2.53215 15.7432 2.89823L15.75 3V8.07692C15.75 8.15339 15.7996 8.21828 15.8684 8.24118L15.9231 8.25H21C21.4142 8.25 21.75 8.58579 21.75 9C21.75 9.3797 21.4678 9.69349 21.1018 9.74315L21 9.75H15.9231C15.0477 9.75 14.3293 9.07771 14.2561 8.22128L14.25 8.07692V3C14.25 2.58579 14.5858 2.25 15 2.25ZM9 2.25C9.3797 2.25 9.69349 2.53215 9.74315 2.89823L9.75 3V8.07692C9.75 8.95231 9.07771 9.67067 8.22128 9.74386L8.07692 9.75H3C2.58579 9.75 2.25 9.41421 2.25 9C2.25 8.6203 2.53215 8.30651 2.89823 8.25685L3 8.25H8.07692C8.15339 8.25 8.21828 8.20041 8.24118 8.13163L8.25 8.07692V3C8.25 2.58579 8.58579 2.25 9 2.25Z" fill="black"/>
</svg>
