<svg width="16" height="16" viewBox="0 0 16 16" fill="none" xmlns="http://www.w3.org/2000/svg">
<path fill-rule="evenodd" clip-rule="evenodd" d="M10.6667 1.5C11.1321 1.5 11.5339 1.77255 11.7211 2.16677L13.3333 2.16667C13.9777 2.16667 14.5 2.689 14.5 3.33333V12.6667C14.5 13.311 13.9777 13.8333 13.3333 13.8333H2.66667C2.02233 13.8333 1.5 13.311 1.5 12.6667V3.33333C1.5 2.689 2.02233 2.16667 2.66667 2.16667L4.27889 2.16677C4.46612 1.77255 4.8679 1.5 5.33333 1.5C5.79877 1.5 6.20055 1.77255 6.38778 2.16677H9.61222C9.79945 1.77255 10.2012 1.5 10.6667 1.5ZM13.5 5.83333H2.5V12.6667C2.5 12.7456 2.55482 12.8117 2.62845 12.8289L2.66667 12.8333H13.3333C13.4254 12.8333 13.5 12.7587 13.5 12.6667V5.83333ZM4.27921 3.16723L2.66667 3.16667C2.57462 3.16667 2.5 3.24129 2.5 3.33333V4.83333H13.5V3.33333C13.5 3.25444 13.4452 3.18834 13.3715 3.17107L13.3333 3.16667L11.7208 3.16723C11.5334 3.56109 11.1318 3.83333 10.6667 3.83333C10.2015 3.83333 9.7999 3.56109 9.61254 3.16723H6.38746C6.2001 3.56109 5.79851 3.83333 5.33333 3.83333C4.86816 3.83333 4.46657 3.56109 4.27921 3.16723Z" fill="currentColor"/>
</svg>
