<svg width="24" height="24" viewBox="0 0 24 24" fill="none" xmlns="http://www.w3.org/2000/svg">
<path fill-rule="evenodd" clip-rule="evenodd" d="M12 2.25C17.3849 2.25 21.75 6.61521 21.75 11.9999C21.75 17.3852 17.3851 21.7506 12.0005 21.75C6.61583 21.75 2.25058 17.385 2.25 11.9999C2.25 6.61548 6.61559 2.25 12 2.25ZM12 3.75C7.44401 3.75 3.75 7.44391 3.75 11.9998C3.75049 16.5565 7.44421 20.25 12.0006 20.25C16.5567 20.2505 20.25 16.5568 20.25 11.9999C20.25 7.44362 16.5565 3.75 12 3.75ZM12 15C12.4142 15 12.75 15.3358 12.75 15.75C12.75 16.1642 12.4142 16.5 12 16.5C11.5858 16.5 11.25 16.1642 11.25 15.75C11.25 15.3358 11.5858 15 12 15ZM12 7.25C13.5188 7.25 14.75 8.48122 14.75 10C14.75 11.2586 13.9045 12.3197 12.7506 12.6463L12.75 13.5C12.75 13.9142 12.4142 14.25 12 14.25C11.6203 14.25 11.3065 13.9678 11.2568 13.6018L11.25 13.5V12C11.25 11.6203 11.5322 11.3065 11.8982 11.2568L12 11.25C12.6904 11.25 13.25 10.6904 13.25 10C13.25 9.30964 12.6904 8.75 12 8.75C11.6195 8.75 11.2685 8.92007 11.0318 9.20922C10.8806 9.39409 10.7857 9.6164 10.7583 9.85503L10.75 10C10.75 10.4142 10.4142 10.75 10 10.75C9.58579 10.75 9.25 10.4142 9.25 10C9.25 9.35732 9.4721 8.74671 9.871 8.25925C10.3896 7.62557 11.1648 7.25 12 7.25Z" fill="black"/>
</svg>
