<svg width="24" height="24" viewBox="0 0 24 24" fill="none" xmlns="http://www.w3.org/2000/svg">
<path fill-rule="evenodd" clip-rule="evenodd" d="M16.6193 18.5767L16.6709 18.6647C16.8407 19.0043 16.7287 19.4111 16.4235 19.6193L16.3355 19.6709L12.3355 21.6709C12.1595 21.7589 11.9576 21.7735 11.773 21.7149L11.6647 21.6709L7.66467 19.6709C7.29419 19.4857 7.14402 19.0352 7.32926 18.6647C7.49907 18.3251 7.89177 18.1706 8.2414 18.2899L8.33549 18.3293L12.0001 20.1621L15.6647 18.3293C16.0043 18.1595 16.4111 18.2715 16.6193 18.5767ZM20 2.25C20.9665 2.25 21.75 3.0335 21.75 4V13C21.75 13.9665 20.9665 14.75 20 14.75H4C3.0335 14.75 2.25 13.9665 2.25 13V4C2.25 3.0335 3.0335 2.25 4 2.25H20ZM20 3.75H4C3.86193 3.75 3.75 3.86193 3.75 4V13C3.75 13.1381 3.86193 13.25 4 13.25H20C20.1381 13.25 20.25 13.1381 20.25 13V4C20.25 3.86193 20.1381 3.75 20 3.75ZM16 10.25C16.4142 10.25 16.75 10.5858 16.75 11C16.75 11.3797 16.4678 11.6935 16.1018 11.7432L16 11.75H8C7.58579 11.75 7.25 11.4142 7.25 11C7.25 10.6203 7.53215 10.3065 7.89823 10.2568L8 10.25H16Z" fill="black"/>
</svg>
