<svg width="24" height="24" viewBox="0 0 24 24" fill="none" xmlns="http://www.w3.org/2000/svg">
<path fill-rule="evenodd" clip-rule="evenodd" d="M4.9167 13.25L4.95093 13.2513C4.96365 13.2518 4.97636 13.2527 4.98904 13.2539L4.9167 13.25C4.97185 13.25 5.02562 13.256 5.07739 13.2673C5.08292 13.2689 5.08923 13.2704 5.09552 13.2719C5.12917 13.2797 5.16116 13.29 5.19213 13.3022C5.19498 13.3037 5.19827 13.305 5.20155 13.3064C5.23722 13.3207 5.27123 13.3378 5.30364 13.3574C5.30426 13.358 5.30523 13.3586 5.30619 13.3592L5.32023 13.3677C5.34472 13.3834 5.36824 13.4004 5.39067 13.4187L5.40422 13.4301L7.82022 15.4931C8.13522 15.7621 8.17253 16.2355 7.90356 16.5505C7.65903 16.8369 7.24556 16.8938 6.93574 16.6996L6.84617 16.6339L5.66618 15.626L5.6667 19C5.6667 19.4142 5.33091 19.75 4.9167 19.75C4.537 19.75 4.22321 19.4678 4.17354 19.1018L4.1667 19L4.16618 15.625L2.9871 16.634C2.70069 16.8784 2.28341 16.8697 2.00788 16.6294L1.92974 16.5504C1.68528 16.264 1.69397 15.8467 1.93427 15.5712L2.01329 15.493L4.43029 13.43C4.52005 13.3531 4.62486 13.2987 4.74004 13.2709C4.74537 13.2704 4.74968 13.2694 4.754 13.2684C4.78318 13.2612 4.81403 13.2563 4.84546 13.2533C4.85785 13.2527 4.87023 13.2519 4.88261 13.2513C4.89375 13.2503 4.90519 13.25 4.9167 13.25ZM21.333 15.7502C21.7472 15.7502 22.083 16.086 22.083 16.5002C22.083 16.8799 21.8008 17.1937 21.4348 17.2434L21.333 17.2502H11C10.5858 17.2502 10.25 16.9144 10.25 16.5002C10.25 16.1205 10.5322 15.8067 10.8982 15.757L11 15.7502H21.333ZM21.333 12.7502C21.7472 12.7502 22.083 13.086 22.083 13.5002C22.083 13.8799 21.8008 14.1937 21.4348 14.2434L21.333 14.2502H11C10.5858 14.2502 10.25 13.9144 10.25 13.5002C10.25 13.1205 10.5322 12.8067 10.8982 12.757L11 12.7502H21.333ZM21.333 9.7502C21.7472 9.7502 22.083 10.086 22.083 10.5002C22.083 10.8799 21.8008 11.1937 21.4348 11.2434L21.333 11.2502H11C10.5858 11.2502 10.25 10.9144 10.25 10.5002C10.25 10.1205 10.5322 9.80671 10.8982 9.75705L11 9.7502H21.333ZM4.9167 4.25C5.29639 4.25 5.61019 4.53215 5.65985 4.89823L5.6667 5L5.66618 8.435L6.84629 7.42954C7.16135 7.16063 7.63474 7.19804 7.90366 7.51309C8.14812 7.79951 8.13943 8.21678 7.89912 8.49232L7.8201 8.57046L5.4031 10.6335C5.15376 10.8463 4.79977 10.8699 4.52721 10.7043L4.42917 10.6334L2.01317 8.57036C1.69817 8.30138 1.66086 7.82798 1.92984 7.51298C2.17436 7.22661 2.58784 7.16974 2.89766 7.36386L2.98722 7.42964L4.16618 8.436L4.1667 5C4.1667 4.58579 4.50248 4.25 4.9167 4.25ZM21.333 6.75C21.7472 6.75 22.083 7.08579 22.083 7.5C22.083 7.8797 21.8008 8.19349 21.4348 8.24315L21.333 8.25H11C10.5858 8.25 10.25 7.91421 10.25 7.5C10.25 7.1203 10.5322 6.80651 10.8982 6.75685L11 6.75H21.333Z" fill="black"/>
</svg>
