<svg width="24" height="24" viewBox="0 0 24 24" fill="none" xmlns="http://www.w3.org/2000/svg">
<path fill-rule="evenodd" clip-rule="evenodd" d="M5.30619 4.35868L5.40422 4.42964L7.82022 6.49264C8.13522 6.76162 8.17253 7.23502 7.90356 7.55002C7.65903 7.83639 7.24556 7.89325 6.93574 7.69914L6.84617 7.63336L5.66618 6.626V17.435L6.84629 16.4295C7.16135 16.1606 7.63474 16.198 7.90366 16.5131C8.14812 16.7995 8.13943 17.2168 7.89912 17.4923L7.8201 17.5705L5.4031 19.6335C5.15376 19.8463 4.79977 19.8699 4.52721 19.7043L4.42917 19.6334L2.01317 17.5704C1.69817 17.3014 1.66086 16.828 1.92984 16.513C2.17436 16.2266 2.58784 16.1697 2.89766 16.3639L2.98722 16.4296L4.16618 17.436V6.626L2.9871 7.63346C2.70069 7.87792 2.28341 7.86923 2.00788 7.62893L1.92974 7.54991C1.68528 7.26349 1.69397 6.84622 1.93427 6.57068L2.01329 6.49254L4.43029 4.42954C4.67963 4.21672 5.03362 4.1931 5.30619 4.35868ZM21.333 16.2502C21.7472 16.2502 22.083 16.586 22.083 17.0002C22.083 17.3799 21.8008 17.6937 21.4348 17.7434L21.333 17.7502H11C10.5858 17.7502 10.25 17.4144 10.25 17.0002C10.25 16.6205 10.5322 16.3067 10.8982 16.257L11 16.2502H21.333ZM21.333 11.2502C21.7472 11.2502 22.083 11.586 22.083 12.0002C22.083 12.3799 21.8008 12.6937 21.4348 12.7434L21.333 12.7502H11C10.5858 12.7502 10.25 12.4144 10.25 12.0002C10.25 11.6205 10.5322 11.3067 10.8982 11.257L11 11.2502H21.333ZM21.333 6.25C21.7472 6.25 22.083 6.58579 22.083 7C22.083 7.3797 21.8008 7.69349 21.4348 7.74315L21.333 7.75H11C10.5858 7.75 10.25 7.41421 10.25 7C10.25 6.6203 10.5322 6.30651 10.8982 6.25685L11 6.25H21.333Z" fill="black"/>
</svg>
