<svg width="16" height="16" viewBox="0 0 16 16" fill="none" xmlns="http://www.w3.org/2000/svg">
<path d="M7.03203 5.67241C7.5405 5.70884 8.03518 5.85445 8.48256 6.09885C8.92998 6.3433 9.31975 6.68146 9.62513 7.08973C9.7904 7.31085 9.7453 7.62424 9.52422 7.7896C9.30315 7.95485 8.98975 7.90965 8.82435 7.68869C8.60487 7.39527 8.32494 7.15214 8.00339 6.97645C7.6818 6.80075 7.32594 6.69664 6.96042 6.67046C6.59497 6.6443 6.22819 6.69672 5.8849 6.82476C5.54157 6.95283 5.22991 7.15349 4.97084 7.41265L3.1375 9.24598C2.6758 9.72724 2.42018 10.3699 2.42592 11.037C2.43174 11.7071 2.70079 12.3483 3.17461 12.8222C3.64839 13.2959 4.28918 13.5643 4.95912 13.5702C5.62909 13.576 6.27468 13.3188 6.75664 12.8534L7.79571 11.8143C7.99097 11.6191 8.30748 11.6191 8.50274 11.8143C8.69799 12.0096 8.69798 12.3261 8.50274 12.5214L7.45131 13.5728C6.78077 14.2203 5.88275 14.5783 4.95065 14.5702C4.01846 14.5621 3.1268 14.1883 2.46758 13.5292C1.8084 12.87 1.43406 11.9783 1.42592 11.0461C1.41781 10.1139 1.77629 9.21539 2.42396 8.54481L4.26316 6.70562C4.6236 6.34504 5.0576 6.0661 5.53529 5.88791C6.01299 5.70971 6.52349 5.63599 7.03203 5.67241ZM11.0542 1.42957C11.9864 1.43768 12.8787 1.81201 13.5379 2.47124C14.197 3.13045 14.5708 4.02216 14.5789 4.95431C14.587 5.88653 14.2285 6.7844 13.5809 7.45497L13.575 7.46148L11.7417 9.29481C11.3812 9.65535 10.9472 9.93434 10.4695 10.1125C9.99192 10.2906 9.48124 10.3638 8.97279 10.3274C8.46436 10.2909 7.9696 10.1453 7.52227 9.90093C7.07492 9.65649 6.68504 9.3189 6.37969 8.91069C6.21442 8.68962 6.25964 8.37623 6.4806 8.21082C6.7017 8.04544 7.01505 8.09069 7.18047 8.31174C7.39997 8.60518 7.6805 8.84828 8.00209 9.02398C8.32354 9.19954 8.67906 9.30378 9.0444 9.32997C9.40992 9.35614 9.77723 9.30374 10.1206 9.17567C10.4639 9.04759 10.7756 8.8469 11.0346 8.58778L12.8615 6.7603C13.327 6.27832 13.5847 5.63284 13.5789 4.96278C13.5731 4.29287 13.3045 3.65204 12.8309 3.17827C12.357 2.70445 11.7158 2.4354 11.0457 2.42957C10.3757 2.42378 9.73014 2.68153 9.24818 3.14702L8.20196 4.18674C8.00612 4.38134 7.68959 4.38059 7.49493 4.18478C7.30038 3.98894 7.30175 3.6724 7.49753 3.47775L8.54831 2.43283L8.55352 2.42762C9.22402 1.78004 10.122 1.42156 11.0542 1.42957Z" fill="black"/>
</svg>
