<svg width="24" height="24" viewBox="0 0 24 24" fill="none" xmlns="http://www.w3.org/2000/svg">
<path fill-rule="evenodd" clip-rule="evenodd" d="M3 2.25C3.3797 2.25 3.69349 2.53215 3.74315 2.89823L3.75 3V21C3.75 21.4142 3.41421 21.75 3 21.75C2.6203 21.75 2.30651 21.4678 2.25685 21.1018L2.25 21V3C2.25 2.58579 2.58579 2.25 3 2.25ZM8 2.25C8.3797 2.25 8.69349 2.53215 8.74315 2.89823L8.75 3V21C8.75 21.4142 8.41421 21.75 8 21.75C7.6203 21.75 7.30651 21.4678 7.25685 21.1018L7.25 21V3C7.25 2.58579 7.58579 2.25 8 2.25ZM11 2.25C11.3797 2.25 11.6935 2.53215 11.7432 2.89823L11.75 3V21C11.75 21.4142 11.4142 21.75 11 21.75C10.6203 21.75 10.3065 21.4678 10.2568 21.1018L10.25 21V3C10.25 2.58579 10.5858 2.25 11 2.25ZM16 2.25C16.3797 2.25 16.6935 2.53215 16.7432 2.89823L16.75 3V21C16.75 21.4142 16.4142 21.75 16 21.75C15.6203 21.75 15.3065 21.4678 15.2568 21.1018L15.25 21V3C15.25 2.58579 15.5858 2.25 16 2.25ZM21 2.25C21.3797 2.25 21.6935 2.53215 21.7432 2.89823L21.75 3V21C21.75 21.4142 21.4142 21.75 21 21.75C20.6203 21.75 20.3065 21.4678 20.2568 21.1018L20.25 21V3C20.25 2.58579 20.5858 2.25 21 2.25Z" fill="black"/>
</svg>
