<svg width="24" height="24" viewBox="0 0 24 24" fill="none" xmlns="http://www.w3.org/2000/svg">
<path fill-rule="evenodd" clip-rule="evenodd" d="M12 3.25C16.8325 3.25 20.75 7.16751 20.75 12C20.75 16.7462 16.9712 20.6098 12.258 20.7463L12 20.75C7.16751 20.75 3.25 16.8325 3.25 12C3.25 11.5858 3.58579 11.25 4 11.25C4.3797 11.25 4.69349 11.5322 4.74315 11.8982L4.75 12C4.75 16.0041 7.99594 19.25 12 19.25C16.0041 19.25 19.25 16.0041 19.25 12C19.25 8.07602 16.1326 4.88014 12.2393 4.75388L12 4.75L11.7028 4.75602C11.6911 4.75649 11.6794 4.75699 11.6677 4.75753C11.5853 4.76123 11.5038 4.7663 11.4225 4.77271L11.6677 4.75753C11.5466 4.76302 11.4261 4.77151 11.3062 4.78293L11.4225 4.77271C11.3268 4.78027 11.2314 4.7897 11.1365 4.80097L11.3062 4.78293C11.1992 4.79313 11.0926 4.80568 10.9868 4.82053L11.1365 4.80097C11.0463 4.81168 10.9566 4.82405 10.8673 4.83807L10.9868 4.82053C10.878 4.83578 10.7698 4.85347 10.6623 4.87354L10.8673 4.83807C10.7801 4.85175 10.6934 4.86699 10.6071 4.88377L10.6623 4.87354C10.5758 4.88971 10.4897 4.90743 10.4041 4.92667L10.6071 4.88377C10.5116 4.90235 10.4167 4.92282 10.3223 4.94515L10.4041 4.92667C10.3111 4.94757 10.2187 4.97028 10.127 4.99475L10.3223 4.94515C10.2321 4.9665 10.1425 4.98956 10.0534 5.0143L10.127 4.99475C10.0438 5.01692 9.96122 5.04054 9.87916 5.06559L10.0534 5.0143C9.96214 5.03966 9.87147 5.06679 9.78145 5.09566L9.87916 5.06559C9.78618 5.09398 9.6939 5.12421 9.60238 5.15624L9.78145 5.09566C9.69063 5.12479 9.60047 5.1557 9.51103 5.18836L9.60238 5.15624C9.52176 5.18445 9.44173 5.21407 9.36231 5.24507L9.51103 5.18836C9.41306 5.22413 9.31594 5.26201 9.21974 5.30194L9.36231 5.24507C9.27731 5.27824 9.19302 5.313 9.10948 5.3493L9.21974 5.30194C9.13851 5.33567 9.05795 5.37086 8.97807 5.40751L9.10948 5.3493C8.93237 5.42628 8.75862 5.51023 8.58862 5.60091C8.09468 5.86438 7.63127 6.18575 7.20756 6.55956C7.18719 6.57662 7.16748 6.59418 7.14787 6.61186L7.20756 6.55956C7.13603 6.62266 7.06563 6.68726 6.99641 6.75333L7.14787 6.61186C7.07662 6.67607 7.00659 6.74175 6.93781 6.80886L6.99641 6.75333C6.91636 6.82974 6.83789 6.90811 6.76105 6.9884L6.67695 7.07686C6.62435 7.13376 6.5726 7.19156 6.52173 7.25024L9 7.25C9.3797 7.25 9.69349 7.53215 9.74315 7.89823L9.75 8C9.75 8.3797 9.46785 8.69349 9.10177 8.74315L9 8.75H5C4.6203 8.75 4.30651 8.46785 4.25685 8.10177L4.25 8V4C4.25 3.58579 4.58579 3.25 5 3.25C5.3797 3.25 5.69349 3.53215 5.74315 3.89823L5.75 4L5.74958 5.87568C5.86313 5.75974 5.97972 5.64713 6.09919 5.53797C6.13715 5.50423 6.17496 5.47026 6.21304 5.43665C6.25498 5.39874 6.29778 5.3617 6.34093 5.32509C6.3611 5.30879 6.38064 5.29234 6.40025 5.27599C6.45614 5.22863 6.51327 5.18222 6.57095 5.13655C6.59583 5.11749 6.62 5.09855 6.64425 5.07974C6.6989 5.03683 6.75469 4.99466 6.81098 4.95318C6.82906 4.94028 6.84702 4.92715 6.86502 4.91408C6.93001 4.86653 6.99579 4.8202 7.06219 4.77478C7.09613 4.75179 7.12999 4.72895 7.164 4.70636C7.19728 4.6841 7.23099 4.66206 7.26485 4.64026C7.31993 4.60485 7.37517 4.57012 7.43078 4.53601C7.46839 4.51299 7.50614 4.49025 7.54407 4.4678C7.58653 4.44254 7.62952 4.41755 7.67272 4.39294C7.71175 4.37089 7.75047 4.34924 7.78935 4.32788C7.8421 4.29867 7.89545 4.27006 7.94909 4.24201C7.98535 4.22336 8.02196 4.20455 8.05871 4.18601C8.10814 4.16072 8.15749 4.13639 8.20707 4.11252C8.24293 4.09564 8.2793 4.07845 8.3158 4.06151C8.37462 4.03378 8.43335 4.0073 8.49238 3.98146C8.52336 3.96835 8.55466 3.95487 8.58605 3.94157C8.64075 3.91794 8.69541 3.89543 8.75031 3.87348C8.79008 3.85805 8.83043 3.84226 8.87091 3.82677C8.92697 3.80483 8.98329 3.78394 9.03984 3.76363C9.08063 3.74946 9.12088 3.73534 9.16126 3.72151C9.20689 3.7054 9.25302 3.69003 9.29929 3.67504C9.35089 3.65878 9.40284 3.64248 9.45498 3.62665C9.50313 3.61161 9.5512 3.59748 9.59942 3.58376C9.65395 3.56865 9.70883 3.5536 9.76389 3.53908C9.79986 3.52921 9.83559 3.52004 9.8714 3.51109C9.94468 3.49313 10.0188 3.47561 10.0932 3.45905C10.1165 3.45356 10.1395 3.44853 10.1626 3.4436C10.224 3.43077 10.2856 3.41827 10.3474 3.40643C10.3925 3.39754 10.4382 3.38918 10.4839 3.38118C10.5248 3.37426 10.565 3.36751 10.6053 3.36104C10.6625 3.35166 10.7203 3.34298 10.7782 3.33487C10.8189 3.32934 10.8595 3.32393 10.9002 3.31881C10.9626 3.31083 11.0253 3.30363 11.0882 3.2971C11.2471 3.28069 11.4066 3.26847 11.5669 3.2606C11.7109 3.25354 11.8552 3.25 12 3.25ZM12 7.25C12.3797 7.25 12.6935 7.53215 12.7432 7.89823L12.75 8V11.25H17C17.4142 11.25 17.75 11.5858 17.75 12C17.75 12.3797 17.4678 12.6935 17.1018 12.7432L17 12.75H12C11.6203 12.75 11.3065 12.4678 11.2568 12.1018L11.25 12V8C11.25 7.58579 11.5858 7.25 12 7.25Z" fill="black"/>
</svg>
