<svg width="24" height="24" viewBox="0 0 24 24" fill="none" xmlns="http://www.w3.org/2000/svg">
<path fill-rule="evenodd" clip-rule="evenodd" d="M19 2.25C19.9665 2.25 20.75 3.0335 20.75 4V20C20.75 20.9665 19.9665 21.75 19 21.75H5C4.0335 21.75 3.25 20.9665 3.25 20V4C3.25 3.0335 4.0335 2.25 5 2.25H19ZM19 3.75H5C4.86193 3.75 4.75 3.86193 4.75 4V20C4.75 20.1381 4.86193 20.25 5 20.25H19C19.1381 20.25 19.25 20.1381 19.25 20V4C19.25 3.86193 19.1381 3.75 19 3.75ZM15 10.25C15.3797 10.25 15.6935 10.5322 15.7432 10.8982L15.75 11V16.188L16.4697 15.4697C16.7359 15.2034 17.1526 15.1792 17.4462 15.3971L17.5303 15.4697C17.7966 15.7359 17.8208 16.1526 17.6029 16.4462L17.5303 16.5303L15.5303 18.5303C15.5049 18.5558 15.4776 18.5794 15.4487 18.601L15.5303 18.5303C15.4933 18.5674 15.4533 18.5998 15.4112 18.6274C15.391 18.6406 15.37 18.653 15.3484 18.6643C15.3393 18.6692 15.3306 18.6735 15.3218 18.6777C15.295 18.6904 15.2665 18.7019 15.2373 18.7117C15.2303 18.714 15.2242 18.7159 15.2182 18.7177C15.1497 18.7386 15.0762 18.75 15 18.75C14.9878 18.7499 14.9815 18.7498 14.9751 18.7496L15 18.75C14.9616 18.75 14.9239 18.7471 14.887 18.7416C14.8755 18.7397 14.8638 18.7377 14.8521 18.7354C14.8271 18.7304 14.8028 18.7242 14.779 18.7169C14.7674 18.7133 14.7553 18.7093 14.7433 18.7049C14.72 18.6964 14.698 18.6871 14.6765 18.6768C14.6649 18.6713 14.6525 18.665 14.6403 18.6584C14.6142 18.644 14.5895 18.6285 14.5658 18.6116C14.5621 18.6091 14.5579 18.606 14.5538 18.6029C14.5206 18.5778 14.4943 18.5549 14.4697 18.5303L12.4697 16.5303C12.1768 16.2374 12.1768 15.7626 12.4697 15.4697C12.7359 15.2034 13.1526 15.1792 13.4462 15.3971L13.5303 15.4697L14.25 16.189V11C14.25 10.5858 14.5858 10.25 15 10.25ZM9 5.25C9.03839 5.25 9.07611 5.25288 9.11295 5.25845C9.12452 5.26025 9.13623 5.26231 9.14789 5.26464C9.1729 5.26959 9.19719 5.27576 9.22098 5.28309C9.23264 5.28671 9.24469 5.29074 9.25665 5.29509C9.27995 5.30358 9.30202 5.31288 9.32352 5.32317C9.33512 5.32867 9.34746 5.33497 9.35965 5.34164C9.38367 5.35487 9.40639 5.36898 9.42826 5.38422C9.43401 5.38814 9.44014 5.39254 9.44621 5.39705C9.45386 5.40285 9.45608 5.40456 9.4583 5.40627L9.53033 5.46967L11.5303 7.46967C11.8232 7.76256 11.8232 8.23744 11.5303 8.53033C11.2641 8.7966 10.8474 8.8208 10.5538 8.60295L10.4697 8.53033L9.75 7.811V13C9.75 13.4142 9.41421 13.75 9 13.75C8.6203 13.75 8.30651 13.4678 8.25685 13.1018L8.25 13V7.81L7.53033 8.53033C7.26406 8.7966 6.8474 8.8208 6.55379 8.60295L6.46967 8.53033C6.2034 8.26406 6.1792 7.8474 6.39705 7.55379L6.46967 7.46967L8.46967 5.46967L8.5417 5.40627C8.54582 5.40309 8.54997 5.39995 8.55416 5.39685L8.46967 5.46967C8.50672 5.43262 8.54669 5.40025 8.58883 5.37257C8.60898 5.35941 8.62997 5.34703 8.65158 5.33567C8.6607 5.33084 8.66943 5.32648 8.67823 5.32231C8.70661 5.3088 8.73676 5.29673 8.76781 5.28663C8.77311 5.28497 8.77747 5.2836 8.78184 5.28227C8.85032 5.26135 8.92384 5.25 9 5.25Z" fill="black"/>
</svg>
