<svg width="24" height="24" viewBox="0 0 24 24" fill="none" xmlns="http://www.w3.org/2000/svg">
<path fill-rule="evenodd" clip-rule="evenodd" d="M20 4.25C20.9665 4.25 21.75 5.0335 21.75 6V18C21.75 18.9665 20.9665 19.75 20 19.75H4C3.0335 19.75 2.25 18.9665 2.25 18V6C2.25 5.0335 3.0335 4.25 4 4.25H20ZM20.25 6.669L12.4983 13.5606C12.2425 13.7879 11.8701 13.8106 11.591 13.6288L11.5017 13.5606L3.75 6.67V18C3.75 18.1183 3.83223 18.2175 3.94268 18.2434L4 18.25H20C20.1381 18.25 20.25 18.1381 20.25 18V6.669ZM19.026 5.75H4.973L12 11.996L19.026 5.75Z" fill="black"/>
</svg>
