<svg width="24" height="24" viewBox="0 0 24 24" fill="none" xmlns="http://www.w3.org/2000/svg">
<path fill-rule="evenodd" clip-rule="evenodd" d="M18.6862 3.8475C18.7144 3.94918 18.7334 4.0531 18.7429 4.15798L18.75 4.31587V15.5002C18.75 17.019 17.5188 18.2502 16 18.2502C14.4812 18.2502 13.25 17.019 13.25 15.5002C13.25 13.9814 14.4812 12.7502 16 12.7502C16.4504 12.7502 16.8755 12.8585 17.2508 13.0505L17.25 4.31587C17.25 4.29326 17.2469 4.27075 17.2409 4.24896C17.2092 4.13493 17.1034 4.06142 16.9901 4.06601L16.9331 4.07499L9.93309 6.01944C9.84653 6.04348 9.78129 6.11135 9.75865 6.19503L9.75 6.26032V18.7502L9.74498 18.8327L9.75 19.0002C9.75 20.519 8.51878 21.7502 7 21.7502C5.48122 21.7502 4.25 20.519 4.25 19.0002C4.25 17.4814 5.48122 16.2502 7 16.2502C7.45042 16.2502 7.87554 16.3585 8.25076 16.5505L8.25 6.26032C8.25 5.52661 8.70663 4.87694 9.38333 4.62252L9.53162 4.57416L16.5316 2.62972C17.4629 2.37104 18.4275 2.91626 18.6862 3.8475ZM7 17.7502C6.30964 17.7502 5.75 18.3099 5.75 19.0002C5.75 19.6906 6.30964 20.2502 7 20.2502C7.69036 20.2502 8.25 19.6906 8.25 19.0002C8.25 18.3099 7.69036 17.7502 7 17.7502ZM16 14.2502C15.3096 14.2502 14.75 14.8099 14.75 15.5002C14.75 16.1906 15.3096 16.7502 16 16.7502C16.6904 16.7502 17.25 16.1906 17.25 15.5002C17.25 14.8099 16.6904 14.2502 16 14.2502Z" fill="black"/>
</svg>
