<svg width="24" height="24" viewBox="0 0 24 24" fill="none" xmlns="http://www.w3.org/2000/svg">
<path fill-rule="evenodd" clip-rule="evenodd" d="M12 3.25C16.8325 3.25 20.75 7.16751 20.75 12C20.75 16.8325 16.8325 20.75 12 20.75C7.16751 20.75 3.25 16.8325 3.25 12C3.25 7.16751 7.16751 3.25 12 3.25ZM12 4.75C7.99594 4.75 4.75 7.99594 4.75 12C4.75 16.0041 7.99594 19.25 12 19.25C16.0041 19.25 19.25 16.0041 19.25 12C19.25 7.99594 16.0041 4.75 12 4.75ZM12 7.25C12.3797 7.25 12.6935 7.53215 12.7432 7.89823L12.75 8V11.25H17C17.4142 11.25 17.75 11.5858 17.75 12C17.75 12.3797 17.4678 12.6935 17.1018 12.7432L17 12.75H12C11.6203 12.75 11.3065 12.4678 11.2568 12.1018L11.25 12V8C11.25 7.58579 11.5858 7.25 12 7.25Z" fill="black"/>
</svg>
