<svg width="24" height="24" viewBox="0 0 24 24" fill="none" xmlns="http://www.w3.org/2000/svg">
<path fill-rule="evenodd" clip-rule="evenodd" d="M10.96 5.44976L8.64125 3.13099C7.95783 2.44757 6.84979 2.44757 6.16637 3.13099L4.2554 5.04197C2.87797 6.41939 2.78454 8.6221 4.04038 10.1112C5.61852 11.9825 7.27 13.7806 8.9948 15.5054C10.7196 17.2302 12.5177 18.8816 14.389 20.4598C15.8781 21.7156 18.0808 21.6222 19.4582 20.2448L21.3692 18.3338C22.0526 17.6504 22.0526 16.5423 21.3692 15.8589L19.0504 13.5401L18.9402 13.439C18.4099 12.992 17.6591 12.8979 17.0303 13.2123L15.3312 14.0607L10.4387 9.16827L11.2879 7.46974C11.6247 6.7961 11.4926 5.9824 10.96 5.44976ZM7.58059 4.19165L9.89936 6.51042C9.97545 6.58652 9.99431 6.70276 9.94619 6.79901L8.85497 8.98215C8.71065 9.27087 8.76726 9.61955 8.99551 9.8478L14.6524 15.5047C14.8806 15.7329 15.2293 15.7895 15.518 15.6452L17.7011 14.554C17.7974 14.5058 17.9136 14.5247 17.9897 14.6008L20.3085 16.9196C20.4061 17.0172 20.4061 17.1755 20.3085 17.2731L18.3975 19.1841C17.5711 20.0106 16.2495 20.0666 15.356 19.3131C13.5171 17.7623 11.7502 16.1395 10.0555 14.4447C8.36067 12.7499 6.73788 10.9831 5.18705 9.14417C4.43354 8.2507 4.4896 6.92908 5.31606 6.10263L7.22703 4.19165C7.32466 4.09402 7.48295 4.09402 7.58059 4.19165Z" fill="black"/>
</svg>
