<svg width="24" height="24" viewBox="0 0 24 24" fill="none" xmlns="http://www.w3.org/2000/svg">
<path fill-rule="evenodd" clip-rule="evenodd" d="M12 2.25C17.3848 2.25 21.75 6.61522 21.75 12C21.75 17.3848 17.3848 21.75 12 21.75C6.61522 21.75 2.25 17.3848 2.25 12C2.25 6.61522 6.61522 2.25 12 2.25ZM12 3.75C7.44365 3.75 3.75 7.44365 3.75 12C3.75 16.5563 7.44365 20.25 12 20.25C16.5563 20.25 20.25 16.5563 20.25 12C20.25 7.44365 16.5563 3.75 12 3.75ZM11.3607 8.34198L11.45 8.4L15.45 11.4C15.8192 11.6769 15.8476 12.2095 15.5352 12.5257L15.45 12.6L11.45 15.6C10.9847 15.949 10.3323 15.657 10.2571 15.1062L10.25 15V9C10.25 8.41832 10.875 8.0716 11.3607 8.34198Z" fill="black"/>
</svg>
