<svg width="24" height="24" viewBox="0 0 24 24" fill="none" xmlns="http://www.w3.org/2000/svg">
<path fill-rule="evenodd" clip-rule="evenodd" d="M12 2.25C12.3797 2.25 12.6935 2.53215 12.7432 2.89823L12.75 3V11.249L21 11.25C21.4142 11.25 21.75 11.5858 21.75 12C21.75 12.3797 21.4678 12.6935 21.1018 12.7432L21 12.75L12.75 12.749V21C12.75 21.4142 12.4142 21.75 12 21.75C11.6203 21.75 11.3065 21.4678 11.2568 21.1018L11.25 21V12.749L3 12.75C2.58579 12.75 2.25 12.4142 2.25 12C2.25 11.6203 2.53215 11.3065 2.89823 11.2568L3 11.25L11.25 11.249V3C11.25 2.58579 11.5858 2.25 12 2.25Z" fill="black"/>
</svg>
