<svg width="24" height="24" viewBox="0 0 24 24" fill="none" xmlns="http://www.w3.org/2000/svg">
<path fill-rule="evenodd" clip-rule="evenodd" d="M12 18.75C12.8284 18.75 13.5 19.4216 13.5 20.25C13.5 21.0784 12.8284 21.75 12 21.75C11.1716 21.75 10.5 21.0784 10.5 20.25C10.5 19.4216 11.1716 18.75 12 18.75ZM12.005 2.75C15.1726 2.75 17.76 5.16942 17.76 8.18C17.76 10.9489 15.5713 13.2178 12.7556 13.5642L12.755 16.37C12.755 16.7842 12.4192 17.12 12.005 17.12C11.6253 17.12 11.3115 16.8378 11.2618 16.4718L11.255 16.37V12.86C11.255 12.4458 11.5908 12.11 12.005 12.11C14.3658 12.11 16.26 10.3388 16.26 8.18C16.26 6.02119 14.3658 4.25 12.005 4.25C10.7 4.25 9.49649 4.79518 8.69407 5.71205C8.08549 6.40743 7.75 7.26991 7.75 8.18C7.75 8.59421 7.41421 8.93 7 8.93C6.58579 8.93 6.25 8.59421 6.25 8.18C6.25 6.9002 6.72132 5.68854 7.5653 4.72418C8.65277 3.48162 10.2678 2.75 12.005 2.75Z" fill="black"/>
</svg>
