<svg width="24" height="24" viewBox="0 0 24 24" fill="none" xmlns="http://www.w3.org/2000/svg">
<path fill-rule="evenodd" clip-rule="evenodd" d="M18 2.25C18.9665 2.25 19.75 3.0335 19.75 4V21C19.75 21.5575 19.1633 21.9202 18.6646 21.6708L15.054 19.865L12.416 21.624C12.1956 21.771 11.9168 21.7894 11.6817 21.6791L11.584 21.624L8.945 19.865L5.33541 21.6708C4.8679 21.9046 4.323 21.6005 4.25671 21.1022L4.25 21V4C4.25 3.0335 5.0335 2.25 6 2.25H18ZM18 3.75H6C5.86193 3.75 5.75 3.86193 5.75 4V19.786L8.66459 18.3292C8.87093 18.226 9.11109 18.2244 9.31652 18.32L9.41603 18.376L12 20.097L14.584 18.376C14.7759 18.248 15.014 18.2166 15.2297 18.286L15.3354 18.3292L18.25 19.787V4C18.25 3.88165 18.1678 3.78251 18.0573 3.7566L18 3.75ZM16 14.25C16.4142 14.25 16.75 14.5858 16.75 15C16.75 15.3797 16.4678 15.6935 16.1018 15.7432L16 15.75H8C7.58579 15.75 7.25 15.4142 7.25 15C7.25 14.6203 7.53215 14.3065 7.89823 14.2568L8 14.25H16ZM16 10.25C16.4142 10.25 16.75 10.5858 16.75 11C16.75 11.3797 16.4678 11.6935 16.1018 11.7432L16 11.75H8C7.58579 11.75 7.25 11.4142 7.25 11C7.25 10.6203 7.53215 10.3065 7.89823 10.2568L8 10.25H16ZM16 6.25C16.4142 6.25 16.75 6.58579 16.75 7C16.75 7.3797 16.4678 7.69349 16.1018 7.74315L16 7.75H8C7.58579 7.75 7.25 7.41421 7.25 7C7.25 6.6203 7.53215 6.30651 7.89823 6.25685L8 6.25H16Z" fill="black"/>
</svg>
