<svg width="24" height="24" viewBox="0 0 24 24" fill="none" xmlns="http://www.w3.org/2000/svg">
<path fill-rule="evenodd" clip-rule="evenodd" d="M21 13.25C21.3797 13.25 21.6935 13.5322 21.7432 13.8982L21.75 14V18C21.75 20.0043 20.1776 21.6413 18.1992 21.7448L18 21.75H14C13.5858 21.75 13.25 21.4142 13.25 21C13.25 20.6203 13.5322 20.3065 13.8982 20.2568L14 20.25H18C19.1909 20.25 20.1656 19.3248 20.2448 18.154L20.25 18V14C20.25 13.5858 20.5858 13.25 21 13.25ZM3 13.25C3.3797 13.25 3.69349 13.5322 3.74315 13.8982L3.75 14V18C3.75 19.1909 4.67516 20.1656 5.84595 20.2448L6 20.25H10C10.4142 20.25 10.75 20.5858 10.75 21C10.75 21.3797 10.4678 21.6935 10.1018 21.7432L10 21.75H6C3.99574 21.75 2.35873 20.1776 2.2552 18.1992L2.25 18V14C2.25 13.5858 2.58579 13.25 3 13.25ZM10 2.25C10.4142 2.25 10.75 2.58579 10.75 3C10.75 3.3797 10.4678 3.69349 10.1018 3.74315L10 3.75H6C4.80914 3.75 3.83436 4.67516 3.75519 5.84595L3.75 6V10C3.75 10.4142 3.41421 10.75 3 10.75C2.6203 10.75 2.30651 10.4678 2.25685 10.1018L2.25 10V6C2.25 3.99574 3.82236 2.35873 5.80084 2.2552L6 2.25H10ZM18 2.25C20.0043 2.25 21.6413 3.82236 21.7448 5.80084L21.75 6V10C21.75 10.4142 21.4142 10.75 21 10.75C20.6203 10.75 20.3065 10.4678 20.2568 10.1018L20.25 10V6C20.25 4.80914 19.3248 3.83436 18.154 3.75519L18 3.75H14C13.5858 3.75 13.25 3.41421 13.25 3C13.25 2.6203 13.5322 2.30651 13.8982 2.25685L14 2.25H18Z" fill="black"/>
</svg>
