<svg width="24" height="24" viewBox="0 0 24 24" fill="none" xmlns="http://www.w3.org/2000/svg">
<path fill-rule="evenodd" clip-rule="evenodd" d="M9.5 3.75C11.6731 3.75 13.6909 4.71283 15.0595 6.34637C15.3256 6.66387 15.2838 7.13691 14.9663 7.40293C14.6488 7.66895 14.1758 7.62721 13.9098 7.30971C12.8232 6.01281 11.2246 5.25 9.5 5.25C6.32436 5.25 3.75 7.82436 3.75 11C3.75 14.1756 6.32436 16.75 9.5 16.75C11.2439 16.75 12.8586 15.9698 13.945 14.6479C14.208 14.3278 14.6806 14.2816 15.0006 14.5446C15.3206 14.8076 15.3669 15.2802 15.1039 15.6002C14.9618 15.7731 14.8124 15.9387 14.6564 16.0967L17.5303 18.9697C17.8232 19.2626 17.8232 19.7374 17.5303 20.0303C17.2641 20.2966 16.8474 20.3208 16.5538 20.1029L16.4697 20.0303L13.4919 17.0534C12.3281 17.8221 10.9487 18.25 9.5 18.25C5.49594 18.25 2.25 15.0041 2.25 11C2.25 6.99594 5.49594 3.75 9.5 3.75ZM17.5303 7.46967C17.7966 7.73594 17.8208 8.1526 17.6029 8.44621L17.5303 8.53033L15.811 10.25H22C22.4142 10.25 22.75 10.5858 22.75 11C22.75 11.3797 22.4678 11.6935 22.1018 11.7432L22 11.75H15.811L17.5303 13.4697C17.7966 13.7359 17.8208 14.1526 17.6029 14.4462L17.5303 14.5303C17.2641 14.7966 16.8474 14.8208 16.5538 14.6029L16.4697 14.5303L13.4697 11.5303L13.4063 11.4583C13.4038 11.4551 13.4014 11.4519 13.399 11.4487L13.4697 11.5303C13.4326 11.4933 13.4003 11.4533 13.3726 11.4112C13.3594 11.391 13.347 11.37 13.3357 11.3484C13.3308 11.3393 13.3265 11.3306 13.3223 11.3218C13.3096 11.295 13.2981 11.2665 13.2883 11.2373C13.286 11.2303 13.2841 11.2242 13.2823 11.2182C13.2614 11.1497 13.25 11.0762 13.25 11C13.25 10.9616 13.2529 10.9239 13.2584 10.887C13.2603 10.8755 13.2623 10.8638 13.2646 10.8521C13.2696 10.8271 13.2758 10.8028 13.2831 10.779C13.2867 10.7674 13.2907 10.7553 13.2951 10.7433C13.3036 10.72 13.3129 10.698 13.3232 10.6765C13.3287 10.6649 13.335 10.6525 13.3416 10.6403C13.3572 10.6121 13.3741 10.5854 13.3926 10.56C13.3937 10.5583 13.3954 10.556 13.3971 10.5538C13.4222 10.5206 13.4451 10.4943 13.4697 10.4697L16.4697 7.46967C16.7626 7.17678 17.2374 7.17678 17.5303 7.46967Z" fill="black"/>
</svg>
