<svg width="24" height="24" viewBox="0 0 24 24" fill="none" xmlns="http://www.w3.org/2000/svg">
<path fill-rule="evenodd" clip-rule="evenodd" d="M3.30582 3.31561L3.21198 3.28065C2.61841 3.1012 2.0534 3.70569 2.3141 4.30159L5.68322 12.001L2.3141 19.7004C2.03968 20.3276 2.68017 20.9644 3.30582 20.6863L21.3058 12.6863C21.8997 12.4224 21.8997 11.5796 21.3058 11.3156L3.30582 3.31561ZM19.1552 12.001L4.46422 18.53L7.18834 12.3016L7.22858 12.1839C7.26883 12.0238 7.25541 11.8537 7.18834 11.7004L4.46422 5.47097L19.1552 12.001Z" fill="black"/>
<path fill-rule="evenodd" clip-rule="evenodd" d="M11 11.25C11.4142 11.25 11.75 11.5858 11.75 12C11.75 12.3797 11.4678 12.6935 11.1018 12.7432L11 12.75H7C6.58579 12.75 6.25 12.4142 6.25 12C6.25 11.6203 6.53215 11.3065 6.89823 11.2568L7 11.25H11Z" fill="black"/>
</svg>
