<svg width="24" height="24" viewBox="0 0 24 24" fill="none" xmlns="http://www.w3.org/2000/svg">
<path fill-rule="evenodd" clip-rule="evenodd" d="M2.46971 12.4697L2.40175 12.5469C2.03338 13.0249 2.36703 13.75 3.00004 13.75H7.25004V20C7.25004 20.4142 7.58582 20.75 8.00004 20.75H16L16.1018 20.7432C16.4679 20.6935 16.75 20.3797 16.75 20V13.75H21C21.6682 13.75 22.0028 12.9421 21.5304 12.4697L12.5304 3.46967C12.2375 3.17678 11.7626 3.17678 11.4697 3.46967L2.46971 12.4697ZM12 5.061L19.189 12.25H16L15.8983 12.2568C15.5322 12.3065 15.25 12.6203 15.25 13V19.25H8.75004V13L8.74319 12.8982C8.69353 12.5322 8.37973 12.25 8.00004 12.25H4.81004L12 5.061Z" fill="black"/>
</svg>
