<svg width="24" height="24" viewBox="0 0 24 24" fill="none" xmlns="http://www.w3.org/2000/svg">
<path fill-rule="evenodd" clip-rule="evenodd" d="M4 3.24854L20.0082 3.32375C20.9715 3.32827 21.75 4.11044 21.75 5.07373V15.8667L21.7443 16.0139C21.6693 16.9852 20.8573 17.7499 19.8668 17.7499L10.592 17.7498L6.91852 21.5379L6.84172 21.6076C6.36552 21.9858 5.63006 21.6542 5.63006 21.0159L5.631 17.7498L4 17.7499C3.0335 17.7499 2.25 16.9664 2.25 15.9999V4.99854C2.25 4.03204 3.0335 3.24854 4 3.24854ZM4.00117 4.74854C3.86193 4.74854 3.75 4.86046 3.75 4.99854V15.9999C3.75 16.138 3.86193 16.2499 4 16.2499H6.38006L6.48183 16.2568C6.8479 16.3064 7.13006 16.6202 7.13006 16.9999L7.131 19.1638L9.7352 16.4779C9.87646 16.3322 10.0707 16.2499 10.2737 16.2499H19.8668C20.0784 16.2499 20.25 16.0784 20.25 15.8667V5.07373C20.25 4.93611 20.1388 4.82438 20.0012 4.82373L4.00117 4.74854ZM7.5 8.99983C8.32843 8.99983 9 9.6714 9 10.4998C9 11.3283 8.32843 11.9998 7.5 11.9998C6.67157 11.9998 6 11.3283 6 10.4998C6 9.6714 6.67157 8.99983 7.5 8.99983ZM12 8.99983C12.8284 8.99983 13.5 9.6714 13.5 10.4998C13.5 11.3283 12.8284 11.9998 12 11.9998C11.1716 11.9998 10.5 11.3283 10.5 10.4998C10.5 9.6714 11.1716 8.99983 12 8.99983ZM16.5 8.99983C17.3284 8.99983 18 9.6714 18 10.4998C18 11.3283 17.3284 11.9998 16.5 11.9998C15.6716 11.9998 15 11.3283 15 10.4998C15 9.6714 15.6716 8.99983 16.5 8.99983Z" fill="black"/>
</svg>
