<svg width="24" height="24" viewBox="0 0 24 24" fill="none" xmlns="http://www.w3.org/2000/svg">
<path fill-rule="evenodd" clip-rule="evenodd" d="M18 5.25C18.3797 5.25 18.6935 5.53215 18.7432 5.89823L18.75 6V17.017L20.2981 15.4697C20.5666 15.2012 20.988 15.1788 21.282 15.4025L21.3588 15.4697C21.6272 15.7382 21.6496 16.1596 21.4259 16.4535L21.3588 16.5303L18.5303 19.3588C18.2618 19.6272 17.8404 19.6496 17.5465 19.4259L17.4697 19.3588L14.6412 16.5303C14.3483 16.2374 14.3483 15.7626 14.6412 15.4697C14.9097 15.2012 15.3311 15.1788 15.6251 15.4025L15.7019 15.4697L17.25 17.019V6C17.25 5.58579 17.5858 5.25 18 5.25ZM5 16.25C5.41421 16.25 5.75 16.5858 5.75 17C5.75 17.3797 5.46785 17.6935 5.10177 17.7432L5 17.75H3C2.58579 17.75 2.25 17.4142 2.25 17C2.25 16.6203 2.53215 16.3065 2.89823 16.2568L3 16.25H5ZM9 11.25C9.41421 11.25 9.75 11.5858 9.75 12C9.75 12.3797 9.46785 12.6935 9.10177 12.7432L9 12.75H3C2.58579 12.75 2.25 12.4142 2.25 12C2.25 11.6203 2.53215 11.3065 2.89823 11.2568L3 11.25H9ZM13 6.25C13.4142 6.25 13.75 6.58579 13.75 7C13.75 7.3797 13.4678 7.69349 13.1018 7.74315L13 7.75H3C2.58579 7.75 2.25 7.41421 2.25 7C2.25 6.6203 2.53215 6.30651 2.89823 6.25685L3 6.25H13Z" fill="black"/>
</svg>
