<svg width="24" height="24" viewBox="0 0 24 24" fill="none" xmlns="http://www.w3.org/2000/svg">
<path fill-rule="evenodd" clip-rule="evenodd" d="M20 3.24854C20.9665 3.24854 21.75 4.03204 21.75 4.99854V15.9999C21.75 16.9664 20.9665 17.7499 20 17.7499L18.369 17.7498L18.3699 21.0159C18.3699 21.6542 17.6345 21.9858 17.1583 21.6076L17.0815 21.5379L13.408 17.7498L4.13322 17.7499C3.14267 17.7499 2.33075 16.9852 2.25567 16.0139L2.25 15.8667V5.07373C2.25 4.11044 3.0285 3.32827 3.99178 3.32375L20 3.24854ZM19.9988 4.74854L3.99883 4.82373C3.86121 4.82438 3.75 4.93611 3.75 5.07373V15.8667C3.75 16.0784 3.92157 16.2499 4.13322 16.2499H13.7263C13.9293 16.2499 14.1235 16.3322 14.2648 16.4779L16.869 19.1638L16.8699 16.9999C16.8699 16.6202 17.1521 16.3064 17.5182 16.2568L17.6199 16.2499H20C20.1381 16.2499 20.25 16.138 20.25 15.9999V4.99854C20.25 4.86046 20.1381 4.74854 19.9988 4.74854ZM7.5 13.2498C7.91421 13.2498 8.25 13.5856 8.25 13.9998C8.25 14.3795 7.96785 14.6933 7.60177 14.743L7.5 14.7498H6C5.58579 14.7498 5.25 14.414 5.25 13.9998C5.25 13.6201 5.53215 13.3063 5.89823 13.2567L6 13.2498H7.5ZM13 13.2498C13.4142 13.2498 13.75 13.5856 13.75 13.9998C13.75 14.3795 13.4678 14.6933 13.1018 14.743L13 14.7498H10C9.58579 14.7498 9.25 14.414 9.25 13.9998C9.25 13.6201 9.53215 13.3063 9.89823 13.2567L10 13.2498H13ZM9.5 10.7498C9.91421 10.7498 10.25 11.0856 10.25 11.4998C10.25 11.8795 9.96785 12.1933 9.60177 12.243L9.5 12.2498H6C5.58579 12.2498 5.25 11.914 5.25 11.4998C5.25 11.1201 5.53215 10.8063 5.89823 10.7567L6 10.7498H9.5ZM13.5 10.7498C13.9142 10.7498 14.25 11.0856 14.25 11.4998C14.25 11.8795 13.9678 12.1933 13.6018 12.243L13.5 12.2498H12C11.5858 12.2498 11.25 11.914 11.25 11.4998C11.25 11.1201 11.5322 10.8063 11.8982 10.7567L12 10.7498H13.5ZM18 10.7498C18.4142 10.7498 18.75 11.0856 18.75 11.4998C18.75 11.8795 18.4678 12.1933 18.1018 12.243L18 12.2498H16C15.5858 12.2498 15.25 11.914 15.25 11.4998C15.25 11.1201 15.5322 10.8063 15.8982 10.7567L16 10.7498H18Z" fill="black"/>
</svg>
