<svg width="24" height="24" viewBox="0 0 24 24" fill="none" xmlns="http://www.w3.org/2000/svg">
<path d="M4.15811 18.2665L5.38706 14.3743H10.0493L11.2587 18.2665H12.9949L8.66427 5.5H6.8306L2.5 18.2665H4.15811ZM9.63963 13.0704H5.79671L6.40144 11.1243C6.63552 10.4107 6.85661 9.70035 7.06468 8.99326C7.27276 8.28618 7.47433 7.56287 7.6694 6.82335H7.74743C7.95551 7.56287 8.16359 8.28618 8.37166 8.99326C8.57974 9.70035 8.80082 10.4107 9.03491 11.1243L9.63963 13.0704ZM16.8378 18.5C17.436 18.5 17.9952 18.367 18.5154 18.101C19.0356 17.8351 19.5233 17.514 19.9784 17.1377H20.037L20.1735 18.2665H21.5V12.4671C21.5 11.2864 21.2399 10.3426 20.7197 9.63548C20.1995 8.92839 19.3607 8.57485 18.2033 8.57485C17.436 8.57485 16.7337 8.70783 16.0965 8.9738C15.4593 9.23977 14.9196 9.51547 14.4774 9.8009L15.1016 10.9102C15.4788 10.6507 15.9079 10.4172 16.3891 10.2096C16.8703 10.002 17.384 9.8982 17.9302 9.8982C18.3203 9.8982 18.6422 9.96632 18.8958 10.1025C19.1494 10.2388 19.3477 10.4172 19.4908 10.6377C19.6338 10.8583 19.7346 11.1113 19.7931 11.3967C19.8516 11.6821 19.8809 11.9741 19.8809 12.2725C17.8522 12.493 16.3761 12.879 15.4528 13.4304C14.5294 13.9818 14.0678 14.7764 14.0678 15.8144C14.0678 16.6707 14.3311 17.3323 14.8578 17.7994C15.3845 18.2665 16.0445 18.5 16.8378 18.5ZM17.306 17.2156C16.8378 17.2156 16.4411 17.0988 16.116 16.8653C15.7909 16.6317 15.6283 16.2425 15.6283 15.6976C15.6283 15.3992 15.7031 15.1235 15.8527 14.8705C16.0022 14.6175 16.2428 14.3937 16.5744 14.1991C16.9061 14.0045 17.3417 13.8358 17.8814 13.6931C18.4211 13.5504 19.0876 13.4271 19.8809 13.3234V15.9506C19.4257 16.3658 18.9966 16.6804 18.5934 16.8945C18.1903 17.1085 17.7611 17.2156 17.306 17.2156Z" fill="black"/>
</svg>
