<svg width="24" height="24" viewBox="0 0 24 24" fill="none" xmlns="http://www.w3.org/2000/svg">
<path fill-rule="evenodd" clip-rule="evenodd" d="M12 4.25002C16.8325 4.25002 20.75 8.16753 20.75 13C20.75 17.8325 16.8325 21.75 12 21.75C7.16751 21.75 3.25 17.8325 3.25 13C3.25 8.16753 7.16751 4.25002 12 4.25002ZM12 5.75002C7.99594 5.75002 4.75 8.99596 4.75 13C4.75 17.0041 7.99594 20.25 12 20.25C16.0041 20.25 19.25 17.0041 19.25 13C19.25 8.99596 16.0041 5.75002 12 5.75002ZM12 7.25002C12.3797 7.25002 12.6935 7.53218 12.7432 7.89825L12.75 8.00002V13C12.75 13.3797 12.4679 13.6935 12.1018 13.7432L12 13.75H8C7.58579 13.75 7.25 13.4142 7.25 13C7.25 12.6203 7.53216 12.3065 7.89823 12.2569L8 12.25L11.25 12.2495L11.25 8.00002C11.25 7.58581 11.5858 7.25002 12 7.25002ZM15.8762 3.30772C16.1555 3.00186 16.6299 2.98035 16.9358 3.25967L21.0003 6.97157L21.0767 7.05231C21.3076 7.33575 21.3023 7.75309 21.0484 8.03114C20.7691 8.337 20.2947 8.35852 19.9888 8.07919L15.9243 4.36729L15.8479 4.28655C15.617 4.00311 15.6223 3.58578 15.8762 3.30772ZM8.11839 3.30772C8.37232 3.58578 8.37763 4.00311 8.1467 4.28655L8.07034 4.36729L4.00576 8.07919C3.6999 8.35852 3.22552 8.337 2.94619 8.03114C2.69226 7.75309 2.68696 7.33575 2.91789 7.05231L2.99425 6.97157L7.05882 3.25967C7.36469 2.98035 7.83907 3.00186 8.11839 3.30772Z" fill="black"/>
</svg>
