<svg width="24" height="24" viewBox="0 0 24 24" fill="none" xmlns="http://www.w3.org/2000/svg">
<path fill-rule="evenodd" clip-rule="evenodd" d="M11.5315 4.41429C12.0226 4.02143 12.75 4.37106 12.75 4.99994V18.9999C12.75 19.6288 12.0226 19.9785 11.5315 19.5856L6.737 15.7499H4C3.08183 15.7499 2.32881 15.0428 2.2558 14.1435L2.25 13.9999V9.99994C2.25 9.03344 3.0335 8.24994 4 8.24994H6.736L11.5315 4.41429ZM19.8403 5.58177C21.0657 7.34706 21.75 9.60916 21.75 11.9999C21.75 14.4005 21.0601 16.6712 19.8256 18.4393C19.5884 18.7789 19.1209 18.862 18.7813 18.6249C18.4416 18.3878 18.3585 17.9202 18.5957 17.5806C19.6513 16.0686 20.25 14.0983 20.25 11.9999C20.25 9.91002 19.6562 7.94698 18.6081 6.43713C18.3719 6.09686 18.4562 5.62954 18.7965 5.39334C19.1368 5.15714 19.6041 5.24151 19.8403 5.58177ZM11.25 6.55894L7.46852 9.58559C7.33554 9.69198 7.1703 9.74994 7 9.74994H4C3.86193 9.74994 3.75 9.86187 3.75 9.99994V13.9999C3.75 14.138 3.86193 14.2499 4 14.2499H7C7.1703 14.2499 7.33554 14.3079 7.46852 14.4143L11.25 17.4399V6.55894ZM16.2809 8.58202C16.9379 9.52848 17.3026 10.7343 17.3026 12.0048C17.3026 13.2806 16.9349 14.491 16.2729 15.4391C16.0358 15.7787 15.5682 15.8618 15.2286 15.6246C14.889 15.3875 14.8059 14.92 15.043 14.5803C15.5261 13.8884 15.8026 12.9784 15.8026 12.0048C15.8026 11.0351 15.5283 10.1284 15.0487 9.43737C14.8125 9.09711 14.8968 8.62979 15.2371 8.39359C15.5774 8.15739 16.0447 8.24175 16.2809 8.58202Z" fill="black"/>
</svg>
