<svg width="24" height="24" viewBox="0 0 24 24" fill="none" xmlns="http://www.w3.org/2000/svg">
<path fill-rule="evenodd" clip-rule="evenodd" d="M11.5315 4.41429C12.0226 4.02143 12.75 4.37106 12.75 4.99994V18.9999C12.75 19.6288 12.0226 19.9785 11.5315 19.5856L6.737 15.7499H4C3.08183 15.7499 2.32881 15.0428 2.2558 14.1435L2.25 13.9999V9.99994C2.25 9.03344 3.0335 8.24994 4 8.24994H6.736L11.5315 4.41429ZM11.25 6.55894L7.46852 9.58559C7.33554 9.69198 7.1703 9.74994 7 9.74994H4C3.86193 9.74994 3.75 9.86187 3.75 9.99994V13.9999C3.75 14.138 3.86193 14.2499 4 14.2499H7C7.1703 14.2499 7.33554 14.3079 7.46852 14.4143L11.25 17.4399V6.55894ZM16.4462 9.39699L16.5303 9.46961L18 10.9389L19.4697 9.46961C19.7626 9.17672 20.2374 9.17672 20.5303 9.46961C20.7966 9.73588 20.8208 10.1525 20.6029 10.4462L20.5303 10.5303L19.061 11.9999L20.5303 13.4696C20.8232 13.7625 20.8232 14.2374 20.5303 14.5303C20.2641 14.7965 19.8474 14.8207 19.5538 14.6029L19.4697 14.5303L18 13.0609L16.5303 14.5303C16.2374 14.8232 15.7626 14.8232 15.4697 14.5303C15.2034 14.264 15.1792 13.8473 15.3971 13.5537L15.4697 13.4696L16.939 11.9999L15.4697 10.5303C15.1768 10.2374 15.1768 9.76251 15.4697 9.46961C15.7359 9.20335 16.1526 9.17914 16.4462 9.39699Z" fill="black"/>
</svg>
