<svg width="24" height="24" viewBox="0 0 24 24" fill="none" xmlns="http://www.w3.org/2000/svg">
<path fill-rule="evenodd" clip-rule="evenodd" d="M3.44621 2.39705L3.53033 2.46967L12 10.939L20.4697 2.46967C20.7626 2.17678 21.2374 2.17678 21.5303 2.46967C21.7966 2.73594 21.8208 3.1526 21.6029 3.44621L21.5303 3.53033L13.061 12L21.5303 20.4697C21.8232 20.7626 21.8232 21.2374 21.5303 21.5303C21.2641 21.7966 20.8474 21.8208 20.5538 21.6029L20.4697 21.5303L12 13.061L3.53033 21.5303C3.23744 21.8232 2.76256 21.8232 2.46967 21.5303C2.2034 21.2641 2.1792 20.8474 2.39705 20.5538L2.46967 20.4697L10.939 12L2.46967 3.53033C2.17678 3.23744 2.17678 2.76256 2.46967 2.46967C2.73594 2.2034 3.1526 2.1792 3.44621 2.39705Z" fill="black"/>
</svg>
