<svg width="62" height="28" viewBox="0 0 62 28" fill="none" xmlns="http://www.w3.org/2000/svg">
    <g clip-path="url(#clip0)">
        <path fill-rule="evenodd" clip-rule="evenodd" d="M3.51132 22.1726C4.59954 18.6502 7.26767 14.7266 10.6542 11.4987C14.0453 8.26633 18.0309 5.85093 21.662 5.19027C25.7511 4.44629 28.7052 4.11308 31.5399 4.33984C34.3617 4.56555 37.1292 5.35193 40.8215 6.94086C43.3928 8.04737 45.7482 10.9669 47.9427 14.4799C49.0227 16.2087 50.0302 18.0233 50.9868 19.7465L51.0011 19.7722C51.8737 21.3444 52.7111 22.8528 53.5068 24.1088C52.6173 24.1959 51.2932 24.1218 49.7617 23.9322C46.3233 23.5066 42.3478 22.5702 41.2777 22.2071C40.7547 22.0297 40.1869 22.3099 40.0094 22.8329C39.832 23.3559 40.1121 23.9237 40.6351 24.1011C41.8687 24.5196 45.9843 25.4799 49.516 25.9171C51.2613 26.1332 52.994 26.2398 54.1836 26.0354C54.7287 25.9417 55.4565 25.7387 55.8812 25.1644C56.3136 24.5799 56.236 23.942 56.0018 23.4221C56.2243 22.1834 56.7305 20.0473 57.3471 17.8971C58.031 15.5121 58.8067 13.2695 59.4257 12.2148C59.7053 11.7385 59.5457 11.1258 59.0694 10.8462C58.5931 10.5667 57.9804 10.7262 57.7008 11.2025C56.9354 12.5068 56.1009 14.9876 55.4246 17.3458C54.993 18.851 54.608 20.3708 54.3319 21.6087C53.8262 20.7404 53.296 19.7856 52.7354 18.7758L52.7307 18.7674C51.7795 17.0538 50.7489 15.1972 49.6389 13.4203C47.4498 9.91603 44.8131 6.48122 41.6121 5.10375C37.8034 3.46473 34.8142 2.59535 31.6994 2.3462C28.5976 2.09809 25.4353 2.47092 21.304 3.22257C17.1492 3.97851 12.8239 6.66749 9.27428 10.051C5.72009 13.4388 2.81765 17.6423 1.60043 21.5822C1.43741 22.1099 1.73302 22.6698 2.26069 22.8328C2.78837 22.9959 3.34829 22.7002 3.51132 22.1726Z" fill="black"/>
    </g>
    <defs>
        <clipPath id="clip0">
            <rect width="62" height="28" fill="white"/>
        </clipPath>
    </defs>
</svg>
