<svg width="58" height="58" viewBox="0 0 58 58" fill="none" xmlns="http://www.w3.org/2000/svg">
    <path d="M29 0C23.2644 0 17.6575 1.70082 12.8885 4.88738C8.11945 8.07394 4.40245 12.6031 2.20751 17.9022C0.0125652 23.2012 -0.561731 29.0322 0.55724 34.6576C1.67621 40.2831 4.43819 45.4504 8.49391 49.5061C12.5496 53.5618 17.7169 56.3238 23.3424 57.4428C28.9678 58.5617 34.7988 57.9874 40.0978 55.7925C45.3969 53.5976 49.9261 49.8806 53.1126 45.1115C56.2992 40.3425 58 34.7356 58 29C57.9913 21.3114 54.9332 13.9402 49.4965 8.5035C44.0598 3.06683 36.6886 0.00869229 29 0ZM29 55.4997C23.7589 55.4997 18.6354 53.9455 14.2776 51.0337C9.91971 48.1219 6.52318 43.9832 4.51748 39.141C2.51178 34.2988 1.98699 28.9706 3.00949 23.8302C4.03199 18.6897 6.55584 13.9679 10.2619 10.2619C13.9679 6.55583 18.6897 4.03197 23.8302 3.00948C28.9706 1.98698 34.2988 2.51176 39.141 4.51746C43.9832 6.52316 48.1219 9.9197 51.0337 14.2775C53.9455 18.6354 55.4997 23.7588 55.4997 29C55.4917 36.0257 52.6972 42.7613 47.7292 47.7292C42.7613 52.6971 36.0257 55.4916 29 55.4997Z" fill="black"/>
    <path d="M30.2502 28.4824V17.9056C30.2502 17.574 30.1184 17.256 29.884 17.0216C29.6495 16.7871 29.3316 16.6554 29 16.6554C28.6684 16.6554 28.3505 16.7871 28.116 17.0216C27.8816 17.256 27.7499 17.574 27.7499 17.9056V29C27.7499 29.3315 27.8817 29.6494 28.1162 29.8838L36.1108 37.8785C36.3458 38.1103 36.6629 38.2398 36.9929 38.2386C37.323 38.2375 37.6392 38.1059 37.8726 37.8726C38.1059 37.6392 38.2376 37.323 38.2387 36.9929C38.2398 36.6629 38.1104 36.3458 37.8786 36.1108L30.2502 28.4824Z" fill="black"/>
    <path d="M29 9.64897C29.3316 9.64895 29.6495 9.51724 29.884 9.28279C30.1184 9.04835 30.2501 8.73038 30.2502 8.39882V6.49735C30.2502 6.16579 30.1184 5.84781 29.884 5.61336C29.6495 5.37892 29.3316 5.2472 29 5.2472C28.6684 5.2472 28.3505 5.37892 28.116 5.61336C27.8816 5.84781 27.7499 6.16579 27.7499 6.49735V8.39882C27.7499 8.73038 27.8816 9.04835 28.116 9.28279C28.3505 9.51724 28.6685 9.64895 29 9.64897Z" fill="black"/>
    <path d="M29 49.1788C28.6685 49.1788 28.3505 49.3105 28.116 49.5449C27.8816 49.7794 27.7499 50.0973 27.7499 50.4289V52.331C27.7499 52.6625 27.8816 52.9805 28.116 53.215C28.3505 53.4494 28.6684 53.5811 29 53.5811C29.3316 53.5811 29.6495 53.4494 29.884 53.215C30.1184 52.9805 30.2502 52.6625 30.2502 52.331V50.4289C30.2501 50.0973 30.1184 49.7794 29.884 49.5449C29.6495 49.3105 29.3316 49.1788 29 49.1788Z" fill="black"/>
    <path d="M7.98496 28.1637H6.08357C5.75201 28.1637 5.43403 28.2954 5.19958 28.5299C4.96513 28.7643 4.83342 29.0823 4.83342 29.4139C4.83342 29.7454 4.96513 30.0634 5.19958 30.2978C5.43403 30.5323 5.75201 30.664 6.08357 30.664H7.98504C8.3166 30.664 8.63458 30.5323 8.86903 30.2978C9.10347 30.0634 9.23518 29.7454 9.23518 29.4139C9.23518 29.0823 9.10347 28.7643 8.86903 28.5299C8.63458 28.2954 8.31652 28.1637 7.98496 28.1637Z" fill="black"/>
    <path d="M50.0151 30.664H51.9165C52.2481 30.664 52.5661 30.5323 52.8005 30.2978C53.035 30.0634 53.1667 29.7454 53.1667 29.4139C53.1667 29.0823 53.035 28.7643 52.8005 28.5299C52.5661 28.2954 52.2481 28.1637 51.9165 28.1637H50.0151C49.6835 28.1637 49.3655 28.2954 49.1311 28.5299C48.8966 28.7643 48.7649 29.0823 48.7649 29.4139C48.7649 29.7454 48.8966 30.0634 49.1311 30.2978C49.3655 30.5323 49.6835 30.664 50.0151 30.664Z" fill="black"/>
</svg>
