<svg width="20" height="20" viewBox="0 0 20 20" fill="none" xmlns="http://www.w3.org/2000/svg">
<circle cx="10" cy="10" r="10" fill="#068802"/>
<g clip-path="url(#clip0_7632_31548)">
<path fill-rule="evenodd" clip-rule="evenodd" d="M10.168 7.79297C9.97812 7.79297 9.82122 7.93405 9.79639 8.11708L9.79297 8.16797L9.79297 14.668C9.79297 14.8751 9.96086 15.043 10.168 15.043C10.3578 15.043 10.5147 14.9019 10.5395 14.7189L10.543 14.668L10.543 8.16797C10.543 7.96086 10.3751 7.79297 10.168 7.79297ZM10.168 5.29297C9.75376 5.29297 9.41797 5.62876 9.41797 6.04297C9.41797 6.45718 9.75376 6.79297 10.168 6.79297C10.5822 6.79297 10.918 6.45718 10.918 6.04297C10.918 5.62876 10.5822 5.29297 10.168 5.29297Z" fill="#F6F5F0"/>
</g>
<defs>
<clipPath id="clip0_7632_31548">
<rect width="12" height="12" fill="white" transform="translate(16.168 16.168) rotate(-180)"/>
</clipPath>
</defs>
</svg>
