<svg width="16" height="16" viewBox="0 0 16 16" fill="none" xmlns="http://www.w3.org/2000/svg">
<g clip-path="url(#clip0_2269_301)">
<path fill-rule="evenodd" clip-rule="evenodd" d="M7.99984 2.16675C11.2215 2.16675 13.8332 4.77842 13.8332 8.00008C13.8332 11.2217 11.2215 13.8334 7.99984 13.8334C4.77818 13.8334 2.1665 11.2217 2.1665 8.00008C2.1665 4.77842 4.77818 2.16675 7.99984 2.16675ZM7.99984 3.16675C5.33046 3.16675 3.1665 5.3307 3.1665 8.00008C3.1665 10.6695 5.33046 12.8334 7.99984 12.8334C10.6692 12.8334 12.8332 10.6695 12.8332 8.00008C12.8332 5.3307 10.6692 3.16675 7.99984 3.16675ZM7.99984 4.83341C8.25297 4.83341 8.46216 5.02152 8.49527 5.26557L8.49984 5.33341V7.50008H11.3332C11.6093 7.50008 11.8332 7.72394 11.8332 8.00008C11.8332 8.25321 11.6451 8.46241 11.401 8.49552L11.3332 8.50008H7.99984C7.74671 8.50008 7.53751 8.31198 7.5044 8.06793L7.49984 8.00008V5.33341C7.49984 5.05727 7.72369 4.83341 7.99984 4.83341Z" fill="currentColor"/>
</g>
<defs>
<clipPath id="clip0_2269_301">
<rect width="16" height="16" fill="white"/>
</clipPath>
</defs>
</svg>
