<svg width="20" height="20" viewBox="0 0 20 20" fill="none" xmlns="http://www.w3.org/2000/svg">
<path fill-rule="evenodd" clip-rule="evenodd" d="M8.5 0C13.1944 0 17 3.80558 17 8.5C17 10.5772 16.2549 12.4804 15.0173 13.9569L19.5303 18.4697C19.8232 18.7626 19.8232 19.2374 19.5303 19.5303C19.2641 19.7966 18.8474 19.8208 18.5538 19.6029L18.4697 19.5303L13.9569 15.0173C12.4804 16.2549 10.5772 17 8.5 17C3.80558 17 0 13.1944 0 8.5C0 3.80558 3.80558 0 8.5 0ZM8.5 1.5C4.63401 1.5 1.5 4.63401 1.5 8.5C1.5 12.366 4.63401 15.5 8.5 15.5C12.366 15.5 15.5 12.366 15.5 8.5C15.5 4.63401 12.366 1.5 8.5 1.5Z" fill="black"/>
</svg>
