<svg id="Layer_1" data-name="Layer 1" xmlns="http://www.w3.org/2000/svg" viewBox="0 0 602 122"><defs><style>.cls-1{fill:#001f4a;}</style></defs><ellipse class="cls-1" cx="52.89" cy="52.95" rx="7.7" ry="7.71"/><ellipse class="cls-1" cx="52.89" cy="36.71" rx="6.89" ry="6.9"/><ellipse class="cls-1" cx="36.68" cy="52.95" rx="6.89" ry="6.9"/><ellipse class="cls-1" cx="52.89" cy="20.48" rx="5.68" ry="5.68"/><ellipse class="cls-1" cx="20.46" cy="52.95" rx="5.68" ry="5.68"/><ellipse class="cls-1" cx="36.68" cy="36.71" rx="6.08" ry="6.09"/><ellipse class="cls-1" cx="36.68" cy="20.48" rx="4.86" ry="4.87"/><ellipse class="cls-1" cx="20.46" cy="36.71" rx="4.86" ry="4.87"/><ellipse class="cls-1" cx="20.46" cy="20.48" rx="4.05" ry="4.06"/><circle class="cls-1" cx="52.89" cy="4.25" r="3.24"/><circle class="cls-1" cx="4.24" cy="52.95" r="3.24"/><circle class="cls-1" cx="36.68" cy="4.25" r="2.43"/><circle class="cls-1" cx="4.24" cy="36.71" r="2.43"/><circle class="cls-1" cx="20.46" cy="4.25" r="1.22"/><circle class="cls-1" cx="4.24" cy="20.48" r="1.22"/><ellipse class="cls-1" cx="69.11" cy="52.95" rx="7.7" ry="7.71"/><ellipse class="cls-1" cx="85.33" cy="52.95" rx="6.89" ry="6.9"/><ellipse class="cls-1" cx="69.11" cy="36.71" rx="6.89" ry="6.9"/><ellipse class="cls-1" cx="101.54" cy="52.95" rx="5.68" ry="5.68"/><ellipse class="cls-1" cx="69.11" cy="20.48" rx="5.68" ry="5.68"/><ellipse class="cls-1" cx="85.33" cy="36.71" rx="6.08" ry="6.09"/><ellipse class="cls-1" cx="101.54" cy="36.71" rx="4.86" ry="4.87"/><ellipse class="cls-1" cx="85.33" cy="20.48" rx="4.86" ry="4.87"/><ellipse class="cls-1" cx="101.54" cy="20.48" rx="4.05" ry="4.06"/><circle class="cls-1" cx="117.76" cy="52.95" r="3.24"/><circle class="cls-1" cx="69.11" cy="4.25" r="3.24"/><circle class="cls-1" cx="117.76" cy="36.71" r="2.43"/><circle class="cls-1" cx="85.33" cy="4.25" r="2.43"/><circle class="cls-1" cx="117.76" cy="20.48" r="1.22"/><circle class="cls-1" cx="101.54" cy="4.25" r="1.22"/><ellipse class="cls-1" cx="69.11" cy="69.05" rx="7.7" ry="7.71"/><ellipse class="cls-1" cx="69.11" cy="85.29" rx="6.89" ry="6.9"/><ellipse class="cls-1" cx="85.33" cy="69.05" rx="6.89" ry="6.9"/><ellipse class="cls-1" cx="69.11" cy="101.52" rx="5.68" ry="5.68"/><ellipse class="cls-1" cx="101.54" cy="69.05" rx="5.68" ry="5.68"/><ellipse class="cls-1" cx="85.33" cy="85.29" rx="6.08" ry="6.09"/><ellipse class="cls-1" cx="85.33" cy="101.52" rx="4.86" ry="4.87"/><ellipse class="cls-1" cx="101.54" cy="85.29" rx="4.86" ry="4.87"/><ellipse class="cls-1" cx="101.54" cy="101.52" rx="4.05" ry="4.06"/><circle class="cls-1" cx="69.11" cy="117.75" r="3.24"/><circle class="cls-1" cx="117.76" cy="69.05" r="3.24"/><circle class="cls-1" cx="85.33" cy="117.75" r="2.43"/><circle class="cls-1" cx="117.76" cy="85.29" r="2.43"/><circle class="cls-1" cx="101.54" cy="117.75" r="1.22"/><circle class="cls-1" cx="117.76" cy="101.52" r="1.22"/><ellipse class="cls-1" cx="52.89" cy="69.05" rx="7.7" ry="7.71"/><ellipse class="cls-1" cx="36.68" cy="69.05" rx="6.89" ry="6.9"/><ellipse class="cls-1" cx="52.89" cy="85.29" rx="6.89" ry="6.9"/><ellipse class="cls-1" cx="20.46" cy="69.05" rx="5.68" ry="5.68"/><ellipse class="cls-1" cx="52.89" cy="101.52" rx="5.68" ry="5.68"/><ellipse class="cls-1" cx="36.68" cy="85.29" rx="6.08" ry="6.09"/><ellipse class="cls-1" cx="20.46" cy="85.29" rx="4.86" ry="4.87"/><ellipse class="cls-1" cx="36.68" cy="101.52" rx="4.86" ry="4.87"/><ellipse class="cls-1" cx="20.46" cy="101.52" rx="4.05" ry="4.06"/><circle class="cls-1" cx="4.24" cy="69.05" r="3.24"/><circle class="cls-1" cx="52.89" cy="117.75" r="3.24"/><circle class="cls-1" cx="4.24" cy="85.29" r="2.43"/><circle class="cls-1" cx="36.68" cy="117.75" r="2.43"/><circle class="cls-1" cx="4.24" cy="101.52" r="1.22"/><circle class="cls-1" cx="20.46" cy="117.75" r="1.22"/><path id="Path_3283" data-name="Path 3283" class="cls-1" d="M170,84.5V78l3.35-.33V44.32L170,44V37.5h14.85V44l-3.28.33V77.67l3.28.33v6.5Z"/><path id="Path_3284" data-name="Path 3284" class="cls-1" d="M244.6,37.5V44l-3.36.33V84.5H231.09l-16-28.41c-1.58-2.83-2.63-3.83-3.74-6.27h-.2c.26,2.9.39,5.35.39,8.31l.08,26.37H200.38V78l3.28-.33,0-40.17h10.07l16,27.75c1.18,2.17,2.5,4.61,3.75,7.18h.13c-.2-3.09-.33-6.59-.33-9.35l-.11-25.58Z"/><path id="Path_3285" data-name="Path 3285" class="cls-1" d="M271.49,64V84.49h-8.22V43.83l-3.34-.33v-6h33.45V48.34h-5.56l-.66-3.69H271.49v12h16.09V64Z"/><path id="Path_3286" data-name="Path 3286" class="cls-1" d="M323.94,85.49c-12.42,0-20-5.81-20-21.63V58.13c0-15.88,7.68-21.62,20-21.62S344,42.25,344,58.13v5.73C344,79.68,336.35,85.49,323.94,85.49ZM335.45,58c0-11.41-4.48-14.32-11.51-14.32S312.49,46.58,312.49,58v6c0,11.48,4.55,14.32,11.45,14.32S335.45,75.49,335.45,64Z"/><path id="Path_3287" data-name="Path 3287" class="cls-1" d="M355.8,84.5V78l3.29-.33V37.45l11,0s10.07,22.12,11.28,26h.13c1.4-4.12,11.47-25.95,11.47-25.95l11,0V77.67l3.29.33v6.5H395.44V58.33c0-3.16.13-4.36.27-7.39h-.14c-1.18,2.3-10.5,24-10.5,24h-7.3s-9.26-21.81-10.45-24h-.13c.2,3,.27,4.23.27,7.39l-.05,26.17Z"/><path id="Path_3288" data-name="Path 3288" class="cls-1" d="M426.37,84.5V43.83l-3.29-.33v-6h33.45V48.28H450.9l-.6-3.69H434.57v12h16.09v7.38H434.57V77.41h15.67l.66-3.82h5.62V84.5Z"/><path id="Path_3289" data-name="Path 3289" class="cls-1" d="M489.85,84.89c-4.86,0-9.69-.13-14.72-.32l0-40.12-3.42-.52V37.5c6-.27,11.8-.4,18.17-.4,15.83,0,22.6,6.4,22.6,20.7V64C512.45,78.43,506.07,84.89,489.85,84.89ZM503.6,57.75c0-11-4.34-13.21-13.91-13.25l-6.28,0-.13,33,6.28,0c9.58,0,14-2.39,14-13.34Z"/><path id="Path_3290" data-name="Path 3290" class="cls-1" d="M526,84.5V78l3.35-.33V44.32L526,44V37.5H540.8V44l-3.29.33V77.67l3.29.33v6.5Z"/><path id="Path_3291" data-name="Path 3291" class="cls-1" d="M554.69,84.5V78l3.28-.33L571.09,37.5h13.55l13,40.17L601,78v6.5H590.7l-4.58-12.79H569.51L565.19,84.5Zm25.16-32.83c-.79-2.5-1.63-5.85-1.78-6.75h-.52c-.16.85-1,4.18-1.77,6.75L571.7,64.2h12.22Z"/></svg>