<svg width="24" height="24" viewBox="0 0 24 24" fill="none" xmlns="http://www.w3.org/2000/svg">
<path fill-rule="evenodd" clip-rule="evenodd" d="M4 2.59388C4.11357 2.59388 4.22673 2.60493 4.33789 2.62681L4.50295 2.66771L9.92681 4.29519C9.95805 4.30456 9.99066 4.30769 10.0228 4.30457L10.0705 4.2952L15.4972 2.6675C16.423 2.38983 17.3986 2.9152 17.6762 3.84096C17.7088 3.94969 17.7308 4.06122 17.7417 4.17394L17.75 4.34372L17.7507 6.93169C20.2787 8.27599 22 10.9369 22 13.9998C22 18.418 18.4183 21.9998 14 21.9998C10.5387 21.9998 7.59085 19.8016 6.47622 16.7251L3.49741 15.8319C2.80641 15.6247 2.31864 15.0173 2.25668 14.3089L2.25 14.1556V4.34388C2.25 3.37738 3.0335 2.59388 4 2.59388ZM14 7.49977C10.4101 7.49977 7.5 10.4099 7.5 13.9998C7.5 17.5896 10.4101 20.4998 14 20.4998C17.5899 20.4998 20.5 17.5896 20.5 13.9998C20.5 10.4099 17.5899 7.49977 14 7.49977ZM15.985 4.09412L15.9282 4.10426L10.5014 5.73196C10.2281 5.81395 9.93968 5.8276 9.66132 5.77292L9.49571 5.73191L4.07185 4.10442C4.04854 4.09743 4.02434 4.09388 4 4.09388C3.88165 4.09388 3.78251 4.17611 3.7566 4.28655L3.75 4.34388V14.1556C3.75 14.2439 3.79636 14.3239 3.86905 14.3686L3.9282 14.3951L6.06647 15.0358C6.02262 14.6967 6 14.3509 6 13.9998C6 9.58149 9.58172 5.99977 14 5.99977C14.7814 5.99977 15.5365 6.11178 16.2504 6.32063L16.25 4.34372C16.25 4.3194 16.2464 4.2952 16.2395 4.2719C16.2055 4.15854 16.0982 4.08721 15.985 4.09412ZM14 10.2498C14.3797 10.2498 14.6935 10.5319 14.7432 10.898L14.75 10.9998V13.2493L18 13.2498C18.4142 13.2498 18.75 13.5856 18.75 13.9998C18.75 14.3795 18.4678 14.6933 18.1018 14.7429L18 14.7498H14C13.5858 14.7498 13.25 14.414 13.25 13.9998V10.9998C13.25 10.5856 13.5858 10.2498 14 10.2498Z" fill="black"/>
</svg>
